<?xml version="1.0" standalone="no"?>
<!DOCTYPE svg PUBLIC "-//W3C//DTD SVG 1.1//EN" "http://www.w3.org/Graphics/SVG/1.1/DTD/svg11.dtd" >
<svg>
<metadata>
Created by FontForge 20120731 at Tue Jun 21 21:36:58 2016
 By www
URW Software, Copyright 1994 by URW
</metadata>
<defs>
<font id="CoronetI" horiz-adv-x="834" >
  <font-face 
    font-family="CoronetI"
    font-weight="400"
    font-style="italic"
    font-stretch="normal"
    units-per-em="2048"
    panose-1="0 0 0 0 0 0 0 0 0 0"
    ascent="1538"
    descent="-510"
    x-height="470"
    cap-height="1523"
    bbox="-177 -526 2461 1947"
    underline-thickness="105"
    underline-position="-408"
    slope="167"
    unicode-range="U+0020-F002"
  />
<missing-glyph horiz-adv-x="512" 
d="M51 0v1535h410v-1535h-410zM410 51v1433h-308v-1433h308z" />
    <glyph glyph-name=".notdef" horiz-adv-x="512" 
d="M51 0v1535h410v-1535h-410zM410 51v1433h-308v-1433h308z" />
    <glyph glyph-name="glyph1" horiz-adv-x="0" 
 />
    <glyph glyph-name="glyph2" horiz-adv-x="512" 
 />
    <glyph glyph-name="space" unicode=" " horiz-adv-x="512" 
 />
    <glyph glyph-name="exclam" unicode="!" horiz-adv-x="379" 
d="M381 152q36 0 61 -28q21 -23 21 -56q0 -37 -27 -62q-24 -21 -57 -21q-37 0 -62 27q-21 24 -21 57q0 36 28 61q23 22 57 22zM421 389l268 1079q6 26 11 33q8 10 35 20l61 23q13 5 20 5q22 0 22 -26q0 -11 -7 -34l-361 -1124q-4 -12 -14 -12q-4 0 -9 1l-17 6q-11 3 -11 15
q0 6 2 14z" />
    <glyph glyph-name="quotedbl" unicode="&#x22;" horiz-adv-x="569" 
d="M665 1476h69q24 0 24 -10q0 -3 -2 -10q-1 -3 -5 -11l-4 -9l-140 -396q-9 -24 -27 -29l-27 -6q-7 -1 -10 -1q-11 0 -11 11q0 3 4 20l99 419q5 22 30 22zM883 1476h68q24 0 24 -10q0 -2 -10 -30l-141 -396q-8 -24 -27 -29l-27 -6q-6 -1 -9 -1q-11 0 -11 12q0 5 4 19l98 419
q6 22 31 22z" />
    <glyph glyph-name="numbersign" unicode="#" 
d="M621 511l48 167h-138q-23 0 -23 12q0 5 2 12l6 20q5 15 32 15h138l52 181q8 29 19 29q17 0 17 -17q0 -6 -2 -12l-51 -181h104l52 181q8 26 21 26q15 0 15 -13q0 -5 -2 -13l-52 -181h145q19 0 19 -13v-2l-9 -29q-5 -15 -28 -15h-145l-48 -167h139q26 0 26 -15q0 -1 -1 -4
l-8 -23q-5 -17 -27 -17h-146l-58 -199q-8 -27 -20 -27q-17 0 -17 12q0 3 4 15l57 199h-103l-59 -199q-9 -27 -23 -27q-15 0 -15 12q0 3 4 15l58 199h-137q-24 0 -24 12q0 6 2 13l5 15q7 19 34 19h137zM807 678h-103l-48 -167h103z" />
    <glyph glyph-name="dollar" unicode="$" 
d="M574 40l93 356q-189 44 -189 213q0 168 144 264q79 52 188 66l28 108q5 20 22 20q19 0 19 -18q0 -6 -3 -15l-23 -88h13q24 1 28 1q172 0 172 -48q0 -6 -2 -16l-8 -41q-4 -22 -16 -22q-7 0 -29 17q-67 52 -172 55l-88 -340q213 -52 213 -220q0 -188 -179 -287
q-72 -40 -183 -58l-48 -180q-8 -30 -24 -30q-19 0 -19 18q0 5 2 14l47 176q-125 8 -242 38q-60 15 -60 38q0 7 4 24l9 35q5 21 19 21q11 0 27 -10q134 -89 257 -91zM616 40q106 15 176 61q94 61 94 156q0 79 -69 112q-29 13 -110 22zM798 892q-87 -7 -142 -41
q-100 -63 -100 -174q0 -76 75 -100q15 -5 80 -17z" />
    <glyph glyph-name="percent" unicode="%" horiz-adv-x="1062" 
d="M1016 864q-47 -13 -92 -13q-47 0 -96 14q20 -43 20 -81q0 -132 -87 -247q-72 -95 -162 -95q-58 0 -98 42q-44 47 -44 130q0 124 88 231q83 101 176 101q26 0 92 -31q39 -19 114 -19q79 0 126 34q23 16 37 16q31 0 31 -28q0 -16 -13 -37l-536 -859q-23 -37 -51 -37
q-30 0 -30 27q0 11 8 25zM710 901q-50 0 -105 -106q-73 -140 -73 -237q0 -71 61 -71q52 0 101 72q79 119 79 265q0 77 -63 77zM1048 489q53 0 93 -44q42 -46 42 -120q0 -131 -87 -246q-71 -94 -161 -94q-59 0 -99 42q-44 47 -44 130q0 127 88 231q86 101 168 101zM1045 444
q-50 0 -105 -106q-73 -141 -73 -237q0 -71 61 -71q52 0 101 72q79 118 79 265q0 77 -63 77z" />
    <glyph glyph-name="ampersand" unicode="&#x26;" horiz-adv-x="1593" 
d="M1518 545q15 -48 15 -83q0 -198 -211 -344q-238 -165 -534 -165q-198 0 -307 85q-120 95 -120 247q0 139 106 236q87 78 284 188q31 17 31 34q0 18 -60 35q-91 24 -127 49q-65 43 -65 114q0 62 47.5 144t123.5 152q96 87 217 137.5t234 50.5q69 0 118 -36q47 -34 47 -88
q0 -107 -116 -243q-67 -78 -90 -78q-6 0 -22 9l-47 27q-10 6 -10 14q0 10 94 82q132 101 132 200q0 21 -22 38q-32 25 -79 25q-175 0 -357 -157q-174 -149 -174 -280q0 -73 131 -123q121 -45 121 -100q0 -32 -30 -57q-23 -20 -104 -71q-191 -122 -233 -167q-54 -59 -54 -136
q0 -99 89 -159q118 -79 293 -79q239 0 436 140q162 116 162 280q0 103 -102 103q-106 0 -185 -53q-64 -43 -64 -110q0 -61 83 -125q11 -9 11 -14t-12 -12l-51 -27q-7 -4 -13 -4q-11 0 -27 18q-50 56 -50 137q0 121 97 205q90 78 230 78q59 0 166 -7q55 -4 102 -4
q106 0 165 52q62 55 62 133q0 82 -65 132q-39 29 -75 29q-24 0 -53 -9q-6 -2 -9 -2q-9 0 -9 7q0 5 4 11l20 28q10 15 25 15q66 0 130 -40q91 -57 91 -177q0 -116 -89 -200q-62 -59 -177 -72q-34 -4 -124 -13z" />
    <glyph glyph-name="quotesingle" unicode="'" horiz-adv-x="341" 
d="M670 1476h69q24 0 24 -10q0 -3 -2 -10q-1 -3 -5 -11l-4 -9l-140 -396q-9 -24 -27 -29l-27 -6q-7 -1 -10 -1q-11 0 -11 11q0 3 4 20l99 419q5 22 30 22z" />
    <glyph glyph-name="parenleft" unicode="(" horiz-adv-x="417" 
d="M976 1523q16 0 16 -14q0 -10 -10 -25q-93 -134 -211.5 -356t-180.5 -378q-144 -360 -212 -719q-15 -77 -32.5 -223.5t-17.5 -191.5l3 -98q0 -28 -20 -28q-23 0 -27 34q-15 140 -15 265q0 434 131 793q114 313 425 760q126 181 151 181z" />
    <glyph glyph-name="parenright" unicode=")" horiz-adv-x="417" 
d="M699 1523q22 0 26 -34q15 -141 15 -267q0 -432 -131 -791q-116 -319 -425 -760q-127 -181 -153 -181q-14 0 -14 14q0 10 10 25q93 135 211 356t181 378q142 357 211 718q16 83 33 226t17 193l-2 95q0 28 21 28z" />
    <glyph glyph-name="asterisk" unicode="*" 
d="M865 1460q16 0 42 -44q17 -30 29 -30q15 0 22 88q3 49 49 49q29 0 29 -22q0 -18 -56 -89q-9 -12 -9 -22q0 -6 7 -6q11 0 39 22q71 59 92 59q24 0 24 -27q0 -48 -124 -64q-26 -4 -26 -17q0 -6 64 -18q44 -8 44 -27q0 -24 -27 -46q-13 -10 -22 -10q-20 0 -50 51
q-13 22 -25 22q-16 0 -18 -69t-48 -69q-27 0 -27 20q0 19 51 97q5 8 5 15q0 6 -6 6q-9 0 -44 -31q-56 -50 -76 -50q-27 0 -27 30q0 39 99 61q47 10 47 22q0 7 -64 20q-41 9 -41 26q0 25 28 45q12 8 19 8z" />
    <glyph glyph-name="plus" unicode="+" horiz-adv-x="1062" 
d="M762 313v221q1 28 19 29h25q19 -1 18 -29v-221h221q28 0 29 -16v-24q-1 -23 -29 -22h-221v-232q-1 -19 -21 -19h-21q-20 0 -20 28v223h-221q-30 0 -30 21v23q0 17 30 18h221z" />
    <glyph glyph-name="comma" unicode="," horiz-adv-x="417" 
d="M410 -15q-93 14 -93 86q0 34 24 59q21 22 56 22q87 0 87 -102q0 -72 -82 -168q-54 -63 -119 -113q-39 -30 -51 -30q-10 0 -16 12v3q1 6 6 10l22 21q106 99 145 164z" />
    <glyph glyph-name="hyphen" unicode="-" horiz-adv-x="417" 
d="M246 226l9 36q6 18 30 18h288q27 0 26 -13q0 -1 -1 -5l-9 -36q-7 -23 -31 -23h-285q-27 0 -27 19v4z" />
    <glyph glyph-name="period" unicode="." horiz-adv-x="417" 
d="M403 152q36 0 61 -27q21 -24 21 -56q0 -38 -27 -63q-24 -21 -57 -21q-37 0 -62 27q-21 24 -21 57q0 36 28 62q23 21 57 21z" />
    <glyph glyph-name="slash" unicode="/" horiz-adv-x="417" 
d="M151 28l772 1507q7 14 25 14q26 0 26 -24q0 -9 -12 -32l-766 -1493q-7 -15 -23 -15q-30 0 -30 24q0 4 8 19z" />
    <glyph glyph-name="zero" unicode="0" 
d="M807 947q105 0 174 -84q75 -90 75 -240q0 -249 -174 -462q-143 -176 -293 -176q-103 0 -178 84q-80 87 -80 229q0 255 168 469q141 180 308 180zM802 896q-113 0 -208 -161q-150 -253 -150 -483q0 -103 44 -163q38 -53 100 -53q118 0 203 167q152 298 152 527
q0 79 -39 123q-38 43 -102 43z" />
    <glyph glyph-name="one" unicode="1" 
d="M731 722l-108 -123q-10 -10 -15 -10q-6 0 -19 12t-13 18q0 9 25 37q83 95 194 248q33 43 47 43h3l33 -4q15 -2 15 -13q0 -5 -7 -29l-269 -865q-10 -30 -38 -36l-80 -14q-8 -1 -11 -1q-11 0 -11 11q0 3 5 17z" />
    <glyph glyph-name="two" unicode="2" 
d="M516 105q157 -1 189 -1q139 0 188 -6q26 -3 26 -17q0 -5 -10 -29l-23 -51q-6 -14 -28 -14q-19 0 -85 5q-257 8 -363 8q-74 0 -83 2q-22 4 -22 19q0 25 56 56q249 138 428 339q147 165 147 306q0 73 -43 125q-40 49 -113 49q-178 0 -274 -240q-17 -43 -30 -43q-4 0 -18 5
l-48 18q-14 6 -14 16q0 35 68 123q133 172 308 172q116 0 196 -75q81 -76 81 -183q0 -177 -248 -383q-80 -67 -285 -201z" />
    <glyph glyph-name="three" unicode="3" 
d="M752 496q216 -62 216 -213q0 -64 -43.5 -127t-115.5 -103q-123 -68 -270 -68q-98 0 -206 35q-81 25 -81 46v8l11 61q5 32 17 32q7 0 22 -12q153 -119 287 -119q95 0 168 60q98 82 98 200q0 69 -48 117q-42 42 -107 42q-18 0 -52 -5q-16 -3 -25 -3q-22 0 -22 17
q0 18 87 56q252 112 252 272q0 38 -25 66q-33 37 -81 37q-114 0 -247 -141q-44 -47 -62 -47q-6 0 -18 8l-33 21q-13 8 -13 19q0 35 88 96q137 95 283 95q87 0 153 -48q68 -50 68 -129q0 -105 -137 -189q-43 -26 -164 -84z" />
    <glyph glyph-name="four" unicode="4" 
d="M713 287l173 517q13 40 39 54l51 25q11 6 18 6q16 0 16 -21q0 -8 -5 -25l-169 -556h124q30 0 30 -13q0 -4 -1 -7l-18 -46q-9 -25 -37 -25h-121l-56 -165q-10 -32 -33 -44l-66 -30q-14 -6 -23 -6q-18 0 -18 17q0 2 9 32l58 183h-366q-55 0 -55 26q0 13 51 87l441 640
q26 37 57 43l27 5q7 1 13 1q17 0 17 -15q0 -10 -11 -25l-498 -658h353z" />
    <glyph glyph-name="five" unicode="5" 
d="M671 829l-99 -282q93 27 156 27q111 0 180 -59q72 -62 72 -163q0 -170 -180 -286q-125 -81 -300 -81q-139 0 -244 43q-41 17 -41 34q0 1 3 13l10 33q5 20 16 20q7 0 16 -7q125 -85 248 -85q128 0 238 106q121 115 121 247q0 59 -45 98q-43 36 -107 36t-195 -67
q-11 -6 -18 -6q-15 0 -15 14q0 5 3 15l148 417q12 35 41 37h309q34 0 34 -22q0 -8 -3 -19l-19 -61q-5 -19 -37 -19h-10z" />
    <glyph glyph-name="six" unicode="6" 
d="M881 1010q18 0 18 -16q0 -18 -81 -93q-153 -141 -265 -335q-121 -207 -121 -357q0 -72 44 -127q38 -46 88 -46q110 0 219 147q104 140 104 253q0 50 -30 86q-32 39 -79 39q-94 0 -184 -126q-48 -67 -70 -67q-16 0 -16 16q0 19 70 102q106 126 224 126q77 0 133 -53
q65 -62 65 -148q0 -171 -157 -313q-126 -113 -265 -113q-110 0 -183 83q-76 87 -76 214q0 209 272 488q136 139 227 203q52 37 63 37z" />
    <glyph glyph-name="seven" unicode="7" 
d="M476 24l456 754q14 22 14 29q0 23 -45 21l-406 -15l-19 -1q-18 -1 -20 -1q-24 0 -24 18q0 9 6 20l30 60q13 24 65 24h495q43 0 43 -25q0 -8 -27 -57l-456 -826q-14 -28 -38 -33l-46 -6q-5 -1 -12 -1q-25 0 -25 16q0 9 9 23z" />
    <glyph glyph-name="eight" unicode="8" 
d="M565 501q-103 78 -103 188q0 135 118 205q88 53 193 53q106 0 186 -56q86 -60 86 -163q0 -174 -229 -236q144 -102 144 -212q0 -70 -39 -136t-104 -105q-88 -54 -210 -54q-126 0 -207 63q-84 65 -84 177q0 183 249 276zM624 463q-218 -69 -218 -239q0 -81 58 -134
q58 -54 153 -54q100 0 171 53q82 62 82 146q0 88 -88 146q-42 27 -158 82zM757 521q97 33 138 70q60 55 60 143q0 74 -51 116q-58 46 -139 46q-85 0 -147 -51q-66 -54 -66 -130q0 -70 70 -124q25 -19 76.5 -46t58.5 -24z" />
    <glyph glyph-name="nine" unicode="9" 
d="M783 946q111 0 187 -81q81 -87 81 -221q0 -217 -258 -495q-110 -119 -226 -207q-61 -46 -78 -46q-16 0 -16 14q0 13 126 136q107 105 208 291q131 239 131 411q0 68 -42 118q-37 44 -92 44q-95 0 -192 -115q-137 -162 -137 -326q0 -54 33 -95q34 -43 80 -43q81 0 198 97
q9 7 16 7q6 0 14 -8.5t8 -14.5t-26 -26q-119 -91 -228 -91q-83 0 -141 62q-67 70 -67 182q0 151 119 268q141 139 302 139z" />
    <glyph glyph-name="colon" unicode=":" horiz-adv-x="417" 
d="M403 152q36 0 61 -27q21 -24 21 -56q0 -38 -27 -63q-24 -21 -57 -21q-37 0 -62 27q-21 24 -21 57q0 36 28 62q23 21 57 21zM497 485q36 0 61 -28q21 -23 21 -55q0 -38 -27 -63q-24 -21 -57 -21q-37 0 -62 27q-21 24 -21 57q0 36 28 62q23 21 57 21z" />
    <glyph glyph-name="semicolon" unicode=";" horiz-adv-x="417" 
d="M409 -15q-93 14 -93 86q0 34 24 59q21 22 56 22q87 0 87 -102q0 -72 -82 -168q-54 -63 -119 -113q-39 -30 -51 -30q-10 0 -16 12v3q1 6 6 10l22 21q106 99 145 164zM497 485q36 0 61 -28q21 -23 21 -55q0 -38 -27 -63q-24 -21 -56 -21q-38 0 -63 27q-21 24 -21 57
q0 36 28 62q23 21 57 21z" />
    <glyph glyph-name="less" unicode="&#x3c;" horiz-adv-x="2048" 
d="M412 541v144l1225 543v-154l-1048 -461l1048 -460v-155z" />
    <glyph glyph-name="equal" unicode="=" horiz-adv-x="1062" 
d="M540 219h504q28 0 29 -16v-24q-1 -23 -29 -22h-504q-30 0 -30 21v23q0 17 30 18zM540 385h504q28 0 29 -16v-24q-1 -23 -29 -22h-504q-30 0 -30 21v24q0 17 30 17z" />
    <glyph glyph-name="greater" unicode="&#x3e;" horiz-adv-x="2048" 
d="M1637 685v-144l-1225 -543v155l1048 460l-1048 461v154z" />
    <glyph glyph-name="question" unicode="?" horiz-adv-x="607" 
d="M452 152q36 0 61 -28q21 -23 21 -56q0 -37 -27 -62q-24 -21 -57 -21q-37 0 -62 27q-21 24 -21 57q0 36 28 61q23 22 57 22zM519 988l-21 38l-9 15q-9 16 -9 23q0 15 36 66t75 91q132 135 245 135q79 0 138 -60q58 -58 58 -134q0 -108 -76 -227q-31 -47 -151 -172
q-221 -230 -298 -421q-14 -40 -33 -40q-16 0 -16 17q0 5 3 14q4 11 15 49q40 130 89 226q74 145 255 347q68 75 113 136q44 59 44 114q0 32 -27 61q-32 35 -73 35q-125 0 -316 -314q-13 -21 -22 -21q-8 0 -20 22z" />
    <glyph glyph-name="at" unicode="@" horiz-adv-x="1062" 
d="M950 -150q-171 -126 -309 -126q-123 0 -206 78q-111 103 -111 303q0 256 195 471q185 204 392 204q129 0 205 -78q72 -75 72 -199q0 -218 -135 -406q-81 -112 -176 -112q-70 0 -92 76q-67 -77 -145 -77q-56 0 -90 41q-30 36 -30 106q0 128 113 288q104 146 205 146
q87 0 122 -102l20 30l77 -14q-188 -327 -188 -400q0 -26 21 -26q27 0 68 56q132 186 132 394q0 104 -62 162q-52 47 -125 47q-184 0 -335 -203q-146 -198 -146 -421q0 -126 68 -216q61 -80 162 -80q94 0 238 84zM848 497q-65 0 -161 -178q-69 -129 -69 -210q0 -57 46 -57
q78 0 155 163q76 161 76 231q0 51 -47 51z" />
    <glyph glyph-name="A" unicode="A" horiz-adv-x="1820" 
d="M1414 465q-194 -230 -351 -339q-249 -173 -581 -173q-169 0 -268 47q-17 8 -17 19q0 6 4 12l35 41q9 10 21 10q8 0 68 -31q93 -47 235 -47q249 0 439 140q229 168 498 547q63 89 418 626q158 238 208 238q54 0 54 -117q0 -182 -168 -710l-80 -250q21 1 27 1q46 4 55 4
q19 0 19 -16q0 -22 -111 -24l-155 -443h-74q-38 113 -121 250q-83 135 -155 215zM1812 441q-41 -1 -62 -1q-127 0 -274 18q159 -198 224 -370zM1443 509q126 -28 300 -28q28 0 80 1l147 477q99 331 112 384q15 56 15 97q0 21 -11 21q-16 0 -275 -405q-143 -224 -368 -547z
" />
    <glyph glyph-name="B" unicode="B" horiz-adv-x="1100" 
d="M803 1059q-156 -579 -314 -849q-77 -131 -178 -226q-34 -31 -47 -31q-34 0 -34 110q0 208 147 502q115 231 324 488l95 380q7 27 30 41l66 37q19 10 25 10q8 0 8 -14q0 -8 -1 -11l-83 -300q352 327 528 327q70 0 118 -45q55 -52 55 -135q0 -135 -125 -296
q-108 -142 -261 -245q-44 -29 -153 -89q-21 -12 -21 -24q0 -19 104 -60q89 -35 141 -93q64 -70 64 -149q0 -124 -114 -250q-128 -141 -310 -166q-135 -18 -348 -18q-58 0 -58 16q0 6 7 14l46 53q12 15 37 15q9 0 28 -1q51 -4 186 -4q201 0 296 58q134 82 134 213
q0 143 -202 232q-107 47 -107 97q0 29 26 51q13 10 67 41q231 130 355 304q112 157 112 276q0 47 -29 80q-29 32 -73 32q-169 0 -541 -371zM661 910q-204 -277 -309 -576q-63 -178 -63 -268q0 -19 7 -19q20 0 108 175q158 312 257 688z" />
    <glyph glyph-name="C" unicode="C" horiz-adv-x="1138" 
d="M1072 1002l18 60q8 23 36 34q169 65 271 141q126 94 126 158q0 35 -36 56.5t-94 21.5q-145 0 -350 -124q-166 -101 -337 -316q-277 -348 -277 -659q0 -169 103 -273q98 -98 252 -98q129 0 279 62q94 40 144 72q43 27 51 27q21 0 21 -30q0 -8 -97 -63q-206 -118 -436 -118
q-208 0 -316 122q-97 108 -97 303q0 293 215 592q224 313 517 459q189 94 348 94q69 0 113 -33q56 -41 56 -108q0 -157 -256 -313q-88 -55 -180 -87q-42 -14 -59 -14q-19 0 -19 12q0 8 4 22z" />
    <glyph glyph-name="D" unicode="D" horiz-adv-x="1820" 
d="M899 91q-201 -91 -348 -91q-134 0 -208 43q-44 26 -44 58q0 52 99 94q109 46 227 46q111 0 309 -52q160 157 273 456q167 446 216 601q-326 236 -627 236q-91 0 -148 -36q-61 -39 -61 -93q0 -86 146 -253q49 -55 49 -62q0 -11 -14 -17l-44 -18q-10 -4 -17 -4
q-19 0 -70 73q-109 156 -109 248q0 118 116 174q80 38 201 38q225 0 411 -73q80 -31 206 -109l35 105q10 24 40 36l66 28q10 4 16 4q10 0 10 -9q0 -4 -13 -39l-70 -191q170 -145 261 -263q171 -222 171 -461q0 -286 -235 -449q-160 -111 -412 -111q-162 0 -432 91zM395 96
q75 -46 168 -46q126 0 246 57q-122 41 -225 41q-111 0 -189 -52zM1002 167q230 -74 409 -74q242 0 373 129q98 97 98 261q0 221 -177 475q-93 134 -196 222q-26 -72 -83 -241q-135 -397 -213 -524q-76 -126 -211 -248z" />
    <glyph glyph-name="E" unicode="E" horiz-adv-x="1176" 
d="M1302 175l-17 -65q-7 -31 -43 -44q-299 -113 -534 -113q-221 0 -329 87q-98 80 -98 207q0 165 166 353q118 134 294 223q121 62 121 75q0 9 -33 45q-73 78 -73 141q0 168 265 321q205 118 409 118q93 0 143 -32q58 -37 58 -96q0 -84 -117 -282q-34 -58 -44 -58
q-8 0 -17 14l-26 43q-12 20 -12 27q0 9 10 23q110 163 110 236q0 35 -35 57q-29 18 -68 18q-88 0 -194.5 -37.5t-185.5 -96.5q-89 -67 -146 -152q-54 -80 -54 -142q0 -38 37 -112q32 -64 32 -94q0 -35 -38 -64q-16 -12 -110 -67q-187 -110 -276 -221q-120 -150 -120 -290
q0 -84 65 -140q61 -54 177 -54q166 0 433 102q159 60 225 97q11 6 18 6q11 0 11 -11q0 -4 -4 -22z" />
    <glyph glyph-name="F" unicode="F" horiz-adv-x="1327" 
d="M1304 507q69 148 148 426q79 280 116 483l-67 4q-174 10 -304 10q-583 0 -583 -141q0 -51 102 -101q71 -35 257 -66q39 -6 39 -15q0 -6 -16 -21l-39 -38q-15 -14 -32 -14q-45 0 -189 58q-181 74 -181 186q0 81 95 137q182 108 777 108q166 0 272 -13
q-121 -631 -275 -1003h120q30 0 30 -15q0 -4 -1 -9l-8 -31q-5 -19 -34 -18h-140q-241 -481 -677 -481q-140 0 -307 63q-72 28 -72 41q0 6 15 21l27 25q14 14 22 14q5 0 39 -23q54 -37 142 -64t155 -27q347 0 537 431h-192q-41 0 -41 13q0 2 1 5l10 35q7 21 31 20h223z" />
    <glyph glyph-name="G" unicode="G" horiz-adv-x="1176" 
d="M1068 35q-164 -82 -296 -82q-200 0 -331 123q-113 107 -113 282q0 163 67.5 337t188.5 323q236 292 519 422q180 83 335 83q90 0 137 -42q47 -41 47 -107q0 -152 -219 -353q-132 -121 -170 -121q-8 0 -20 9l-45 31q-19 13 -19 23t26 24q102 58 235 179q153 138 153 221
q0 38 -36 63q-35 23 -91 23q-169 0 -369 -125q-305 -191 -485 -501q-158 -273 -158 -498q0 -160 113 -260q98 -86 238 -86q164 0 310 125l37 138q53 193 175 193q38 0 38 -25q0 -9 -23 -38q-48 -60 -123 -336q-56 -207 -91 -282q-77 -164 -240 -247q-110 -57 -266 -57
q-144 0 -227 27q-13 4 -16 25l-6 56q-1 6 -1 12q0 12 8 12q5 0 52 -21q136 -61 248 -61q217 0 329 242q35 74 89 269z" />
    <glyph glyph-name="H" unicode="H" horiz-adv-x="1858" 
d="M1282 495q-140 -260 -251 -356q-191 -165 -438 -165q-208 0 -357 85q-28 17 -28 25q0 4 9 17l30 38q11 14 20 14q5 0 15 -7q167 -122 370 -122q236 0 400 233q132 188 256 555l119 356q71 214 79 260q6 25 34 35l59 21q17 6 22 6q11 0 11 -18q0 -23 -54 -176l-211 -598
q-33 -93 -66 -162q174 -75 525 -75l196 692q70 248 85 309q6 25 34 35l58 21q18 6 22 6q13 0 13 -16q0 -9 -30 -111l-25 -82l-254 -856q39 0 112 5q9 1 15 1q11 0 11 -8q0 -4 -2 -7l-8 -16q-8 -9 -78 -12l-57 -4h-5l-125 -418h-57q-172 323 -449 495zM1416 457
q159 -130 309 -349l90 312h-41q-165 0 -358 37z" />
    <glyph glyph-name="I" unicode="I" horiz-adv-x="1176" 
d="M1124 478q-177 124 -177 371q0 234 182 497q122 177 213 177q115 0 115 -194q0 -307 -214 -856q74 -16 144 -19q21 -1 21 -18q0 -22 -24 -22q-40 0 -156 22q-106 -216 -204 -311q-178 -172 -435 -172q-196 0 -350 69q-44 20 -44 32q0 5 6 17l22 40q9 16 18 16q5 0 26 -13
q75 -47 176.5 -79t179.5 -32q212 0 371 232q55 80 130 243zM1142 519q71 159 132 349q124 391 124 526q0 88 -50 88q-64 0 -172 -211q-133 -259 -133 -487q0 -162 99 -265z" />
    <glyph glyph-name="J" unicode="J" horiz-adv-x="1024" 
d="M1022 431q266 657 266 943q0 99 -45 99q-35 0 -101 -109q-123 -202 -123 -488q0 -124 46 -205q5 -9 5 -13q0 -8 -10 -18l-62 -60q-14 -14 -22 -14q-9 0 -20 39q-31 110 -31 222q0 310 149 541q99 155 194 155q116 0 116 -207q0 -253 -105 -565q-22 -65 -114 -308h12h27
q33 0 33 -18q0 -7 -7 -19l-21 -36q-12 -20 -34 -20l-37 1q-2 0 -12 -1q-117 -228 -189 -343q-146 -237 -354 -385q-182 -129 -314 -129q-67 0 -111 57q-38 49 -38 125q0 218 260 456q251 230 642 300zM982 337q-257 -26 -495 -216q-149 -118 -245 -274q-63 -103 -63 -185
q0 -45 25 -80q28 -39 72 -39q80 0 214 95q267 190 492 699z" />
    <glyph glyph-name="K" unicode="K" horiz-adv-x="1820" 
d="M210 39l34 33q13 12 21 12q6 0 17 -5q143 -76 284 -76q322 0 540 392q120 217 221 581l124 453q10 35 37 51l68 36q14 7 22 7q14 0 14 -14q0 -7 -5 -24l-149 -520q-110 -380 -232 -586q-124 -211 -344 -333q-168 -93 -369 -93q-100 0 -238 37q-59 16 -59 29q0 7 14 20z
M1857 44l-48 -39q-7 -5 -15 -5q-10 0 -22 13l-353 405q-79 90 -79 121q0 16 36 56l16 18q38 40 81 90l651 756q42 48 60 57q16 7 42 7h57q24 0 24 -15q0 -8 -24 -33l-771 -800q-72 -75 -72 -100q0 -17 20 -40l390 -444q18 -21 18 -30q0 -8 -11 -17z" />
    <glyph glyph-name="L" unicode="L" horiz-adv-x="1403" 
d="M955 234q36 60 62 117q25 54 83 256q133 456 258 651q91 143 195 215q73 50 136 50q66 0 101 -57q28 -47 28 -122q0 -122 -75 -345q-23 -67 -51 -73l-52 -13q-9 -2 -14 -2q-9 -1 -9 10q0 13 32 87q106 242 106 368q0 45 -21 73q-17 24 -41 24q-92 0 -203 -174
q-75 -116 -174 -421q-109 -337 -170 -483q-47 -109 -116 -189q19 -7 142 -53q57 -21 160 -45.5t141 -26.5q19 -1 19 -12q0 -6 -8 -16l-46 -65q-10 -14 -23 -14q-33 0 -186 50q-108 36 -269 108q-211 -179 -451 -179q-114 0 -202 40q-87 41 -87 131q0 89 92 142q87 51 220 51
q165 0 423 -83zM888 155q-223 69 -377 69q-97 0 -165 -31q-67 -30 -67 -82q0 -50 60 -79q62 -29 159 -29q209 0 390 152z" />
    <glyph glyph-name="M" unicode="M" horiz-adv-x="1707" 
d="M687 311q92 175 180 344q180 342 320 553q179 268 289 268q48 0 78 -49q21 -34 21 -88q0 -105 -56 -258l-337 -925l64 117l99 180l126 231q220 408 338 581q101 150 184 150q47 0 77 -37q36 -47 36 -133q0 -87 -30 -208q-23 -90 -115 -342q-71 -193 -156 -455.5
t-121 -396.5q-4 -16 -13 -16q-6 0 -17 10l-56 48q-16 14 -16 28q0 27 100.5 311.5t235.5 639.5q126 332 126 439q0 62 -45 62q-46 0 -114 -97q-154 -219 -429 -739q-151 -285 -230 -413q-71 -116 -118 -116q-40 0 -40 63q0 90 81 304l300 787q67 179 67 224q0 48 -39 48
q-82 0 -306 -355q-125 -199 -446 -818q-102 -195 -130 -253h-115q115 278 259 743q155 497 155 657q0 46 -19 73q-10 15 -23 15q-55 0 -146 -151q-28 -48 -74 -151.5t-61 -154.5q-21 -70 -35 -70q-4 0 -16 11l-30 29q-15 14 -15 24q0 15 30 89.5t56 125.5q154 298 288 298
q56 0 86 -64q23 -48 23 -124q0 -196 -115 -566q-29 -93 -156 -473z" />
    <glyph glyph-name="N" unicode="N" horiz-adv-x="1214" 
d="M673 248q265 511 415 763q275 465 446 465q52 0 84 -47q33 -47 33 -123q0 -94 -43 -252q-21 -77 -104 -332q-107 -335 -222 -732q-45 -163 -55 -163q-2 0 -16 12l-56 46q-16 14 -16 26t104 321l84 251q187 555 213 640q52 169 52 240q0 63 -50 63q-146 0 -423 -477
q-94 -162 -266.5 -480.5t-247.5 -468.5h-102q111 344 223 755q174 631 174 699q0 38 -20 38t-83 -103q-64 -105 -142.5 -262t-105.5 -236q-16 -45 -29 -45q-6 0 -16 13l-36 44q-12 15 -12 25q0 15 57.5 131t106.5 201q164 282 259 282q80 0 80 -160q0 -166 -172 -748z" />
    <glyph glyph-name="O" unicode="O" horiz-adv-x="1403" 
d="M1245 1523q190 0 318 -152q140 -167 140 -420q0 -237 -126 -472q-130 -246 -344 -395q-188 -131 -376 -131q-201 0 -334 146q-144 156 -144 403q0 228 129 470q142 265 355 416q190 135 382 135zM1247 1473q-181 0 -361 -144q-199 -159 -320 -441q-91 -214 -91 -416
q0 -207 107 -347q93 -122 248 -122q170 0 344 125q185 134 309 388q124 253 124 488q0 221 -112 358q-91 111 -248 111z" />
    <glyph glyph-name="P" unicode="P" horiz-adv-x="1100" 
d="M590 842q165 347 312 496q182 185 339 185q116 0 194 -90q70 -82 70 -195q0 -131 -66 -279t-182 -278q-150 -169 -333 -255q-132 -63 -295 -108q-78 -22 -94 -22t-16 12q0 9 6 22l25 56q7 16 20 15q294 0 496 189q148 137 238 345q80 187 80 337q0 85 -46 141
q-50 60 -117 60q-173 0 -384 -283q-165 -220 -332 -691q-93 -261 -234 -724q-9 -29 -19 -29q-3 0 -21 14l-54 46q-17 14 -17 24q0 5 33 98q295 817 400 1520q5 29 28 41l46 25q17 9 27 9q18 0 18 -19q0 -9 -2 -20q-6 -31 -19 -114q-45 -283 -101 -528z" />
    <glyph glyph-name="Q" unicode="Q" horiz-adv-x="1403" 
d="M1126 15q98 -141 242 -172q24 -5 24 -18q0 -8 -9 -17l-49 -46q-16 -15 -32 -15q-60 0 -150 73q-63 53 -139 159q-83 -26 -155 -26q-200 0 -335 147q-144 156 -144 403q0 227 129 470q138 259 356 415q189 135 380 135q193 0 318 -153q141 -173 141 -419q0 -214 -109 -439
q-103 -214 -290 -368q-66 -54 -178 -129zM983 25q-121 213 -222 213q-33 0 -62 -23q-37 -29 -37 -77q0 -68 65 -108q44 -27 115 -27q60 0 141 22zM1091 71q191 112 314 301q202 312 202 642q0 206 -112 347q-89 112 -241 112q-272 0 -503 -279q-124 -151 -200 -346
q-76 -197 -76 -376q0 -275 146 -396q-18 39 -18 77q0 73 44 122q51 56 130 56q102 0 190 -100q49 -55 124 -160z" />
    <glyph glyph-name="R" unicode="R" horiz-adv-x="1176" 
d="M477 478q531 1045 919 1045q103 0 159 -81q50 -72 50 -165q0 -179 -130 -360q-143 -198 -376 -298q-159 -67 -334 -84q-81 -7 -81 -27q0 -33 422 -407q102 -91 102 -96q0 -7 -17 -15l-65 -29q-19 -8 -23 -8q-15 0 -88 68q-29 28 -131 120q-142 128 -232 224
q-64 67 -64 118q0 44 32 63q21 13 99 30q183 40 342 133t264 222q184 226 184 407q0 135 -125 135q-218 0 -527 -457q-168 -247 -280 -457q-99 -187 -240 -517q-38 -89 -50 -89q-4 0 -18 9l-52 33q-12 7 -12 18q0 9 19 53q291 691 426 1313q16 85 21 93q6 13 20 20l64 26
q12 5 17 5q13 0 13 -17q0 -58 -109 -423q-7 -24 -199 -605z" />
    <glyph glyph-name="S" unicode="S" horiz-adv-x="1365" 
d="M236 106l28 39q10 14 21 14q6 0 16 -5q288 -151 630 -151q189 0 330 91q127 82 127 209q0 87 -59 166q-37 48 -154 138q-188 145 -261 220q-116 121 -116 242q0 164 188 292q103 71 262 117q156 45 294 45q294 0 294 -163q0 -135 -181 -279q-103 -81 -133 -81
q-8 0 -31 11l-64 30q-14 7 -14 15q0 11 78 48q113 55 199 127q87 73 87 137q0 43 -57 73q-61 32 -169 32q-258 0 -471 -136q-186 -119 -186 -241q0 -87 97 -188q50 -51 177 -142q184 -131 247 -219q69 -96 69 -197q0 -84 -48.5 -164.5t-129.5 -129.5q-171 -103 -467 -103
q-216 0 -423 50q-135 33 -181 65q-10 8 -10 13q0 9 11 25z" />
    <glyph glyph-name="T" unicode="T" horiz-adv-x="1214" 
d="M1566 1416q-224 14 -382 14q-281 0 -427 -37q-144 -36 -144 -99q0 -87 200 -141q79 -22 179 -33q20 -2 20 -12q0 -7 -16 -22l-39 -38q-15 -14 -32 -14q-45 0 -190 58q-181 74 -181 186q0 153 312 210q189 35 552 35q176 0 281 -13q-121 -616 -257 -960
q-130 -328 -338 -473q-177 -124 -377 -124q-183 0 -330 64q-60 27 -60 40q0 7 15 21l26 25q14 14 22 14q6 0 40 -23q130 -91 300 -91q254 0 422 232q153 211 291 702q69 247 113 479z" />
    <glyph glyph-name="U" unicode="U" horiz-adv-x="1289" 
d="M1454 849q-225 -454 -370 -642q-197 -254 -378 -254q-91 0 -145 59q-49 56 -49 142q0 109 59 322q98 349 243 776q51 149 51 200q0 36 -22 36q-67 0 -279 -445q-10 -23 -21 -23q-6 0 -18 14l-28 31q-13 14 -13 27q0 23 114 204q152 243 271 243q34 0 54 -16
q42 -34 42 -103q0 -122 -198 -695q-159 -461 -159 -600q0 -58 38 -91q35 -31 84 -31q120 0 260.5 158t311.5 484q196 375 333 803q10 28 40 28h55q25 0 25 -22q0 -8 -6 -21q-238 -677 -458 -1574q-6 -31 -20 -31q-8 0 -21 5l-58 25q-16 7 -16 21q0 91 244 862z" />
    <glyph glyph-name="V" unicode="V" horiz-adv-x="1289" 
d="M539 1040l-31 56q-8 13 -8 20q0 19 96 194q116 213 215 213q120 0 120 -261q0 -177 -53 -550q-56 -401 -56 -555t74 -154q100 0 290 250q164 216 312 590q109 278 181 610q6 23 31 35l66 30q13 6 18 6q9 0 9 -11q0 -16 -8 -38q-11 -29 -70 -238q-91 -325 -288 -699
q-143 -275 -316 -445q-143 -140 -237 -140q-77 0 -119 74.5t-42 211.5q0 147 48 487q64 450 64 644q0 103 -31 103q-34 0 -93 -107q-25 -47 -76.5 -165t-64.5 -160q-6 -18 -14 -18q-7 0 -17 17z" />
    <glyph glyph-name="W" unicode="W" horiz-adv-x="1858" 
d="M1367 1090q-194 -479 -366 -764q-126 -211 -228 -308q-68 -65 -104 -65q-61 0 -61 127q0 145 84 746q69 483 69 594q0 53 -24 53q-28 0 -77 -114q-62 -144 -95 -298q-18 -82 -30 -82q-10 0 -15 23l-20 91q-4 16 -4 26q0 50 87 219q94 185 167 185q50 0 76 -62
q29 -68 29 -175q0 -142 -93 -780q-60 -408 -60 -440q0 -20 15 -20q22 0 88 87q169 226 328 560q211 442 302 777q13 45 22 51q4 2 20 2h40q22 0 22 -13q0 -8 -35 -244q-128 -814 -128 -1039q0 -224 65 -224q37 0 109 61.5t147 158.5q209 269 374 699q130 335 150 515
q4 34 16 41q3 2 25 13l44 24q13 7 16 7q14 0 14 -26q0 -142 -114 -440q-111 -289 -216 -471q-196 -337 -342 -484q-147 -148 -246 -148q-68 0 -105.5 82.5t-37.5 229.5q0 217 92 825z" />
    <glyph glyph-name="X" unicode="X" horiz-adv-x="1176" 
d="M932 796q-50 183 -90 338q-65 247 -93 337q-3 10 -3 16q0 19 23 24l52 10q8 2 15 2q27 0 51 -125q53 -216 106 -429l22 -88l38 47l127 156q239 295 325 407q25 32 74 32h54q28 0 28 -15q0 -9 -19 -26q-86 -81 -257 -269q-153 -168 -304 -332l-49 -54q158 -607 218 -771
q18 -50 18 -65t-22 -20l-62 -15l-14 -3q-18 0 -34 68q-5 22 -47 169q-63 241 -124 488l-16 60l-47 -54l-154 -177l-172 -196q-204 -232 -246 -283q-25 -28 -62 -28h-62q-22 0 -22 11q0 5 13 16q221 212 693 723z" />
    <glyph glyph-name="Y" unicode="Y" horiz-adv-x="1252" 
d="M1554 1101q-286 -526 -488 -796q-155 -207 -297 -299q-82 -53 -145 -53q-120 0 -120 146q0 149 96 470q39 129 175 543q98 299 98 337q0 24 -19 24q-34 0 -144 -154q-67 -95 -163 -297q-5 -11 -12 -11t-15 12l-30 50q-6 11 -6 16q0 11 50.5 95.5t89.5 140.5
q141 198 223 198q85 0 85 -129q0 -90 -32 -209q-9 -36 -82 -276q-218 -714 -218 -839q0 -67 49 -67q102 0 313 260q163 201 398 598q116 195 166 295q30 59 88 206q32 79 39 83q4 4 21 7l48 9q7 1 10 1q21 0 21 -16q0 -24 -100 -353.5t-207 -658.5q-124 -383 -226 -545
q-112 -176 -266 -260q-146 -79 -371 -79q-142 0 -142 23q0 3 5 16l19 45q7 15 15 15q5 0 14 -4q88 -45 229 -45q187 0 321 169q125 156 307 696q49 145 203 636z" />
    <glyph glyph-name="Z" unicode="Z" horiz-adv-x="1403" 
d="M347 97l82 4q427 17 598 17q249 0 404 -9q54 -4 54 -16q0 -8 -7 -19l-48 -76q-11 -19 -34 -19q-6 0 -17 2q-138 21 -433 21q-444 0 -602 -16q-69 -7 -101 -7q-42 0 -42 32q0 58 196 246q183 175 686 539q436 315 700 569q-221 65 -638 65q-241 0 -388 -43
q-58 -17 -95 -48.5t-37 -64.5q0 -73 167 -124q108 -33 215 -39q35 -2 35 -13q0 -8 -9 -21l-36 -52q-14 -20 -32 -20q-27 0 -102 23.5t-131 49.5q-166 77 -166 175q0 57 50 116t123 89q156 65 442 65q340 0 594 -56q113 -25 113 -66q0 -49 -251 -274q-181 -163 -621 -482
q-242 -177 -349 -261q-172 -137 -320 -287z" />
    <glyph glyph-name="bracketleft" unicode="[" horiz-adv-x="417" 
d="M107 -525l572 2048h304l-15 -55h-188l-542 -1938h188l-15 -55h-304z" />
    <glyph glyph-name="backslash" unicode="\" horiz-adv-x="417" 
d="M505 14l-76 1490q-2 45 31 45q28 0 31 -45l74 -1482q2 -37 -33 -37q-26 0 -27 29z" />
    <glyph glyph-name="bracketright" unicode="]" horiz-adv-x="417" 
d="M38 -525l15 55h188l542 1938h-188l16 55h301l-572 -2048h-302z" />
    <glyph glyph-name="asciicircum" unicode="^" horiz-adv-x="1024" 
d="M513 1201q-25 -24 -28 -27q-143 -157 -385 -180v92q68 34 136.5 91.5t110.5 117.5q94 133 105 241h121q9 -113 118 -259q44 -59 148 -138q36 -27 86 -53v-92q-134 13 -239 66q-68 37 -123 91z" />
    <glyph glyph-name="underscore" unicode="_" horiz-adv-x="1024" 
d="M0 -407h1024v-105h-1024v105z" />
    <glyph glyph-name="grave" unicode="`" 
d="M685 752l165 -154q7 -7 7 -11q0 -5 -7 -5h-7l-36 5q-24 3 -43 15l-212 153q-5 4 -5 7q0 5 18 6h73q28 0 47 -16z" />
    <glyph glyph-name="a" unicode="a" horiz-adv-x="683" 
d="M626 201l-49 -62q-121 -154 -213 -154q-43 0 -72 34q-27 32 -27 80q0 85 69 192q124 194 298 194q66 0 66 -21q0 -9 -4 -17l-17 -34q-44 30 -78 30q-81 0 -160 -141q-69 -125 -69 -197q0 -52 45 -52q62 0 156 133q97 136 156 262q9 21 32 22h36q23 0 23 -14q0 -6 -5 -19
l-99 -281q-19 -54 -19 -75q0 -28 27 -28q33 0 112 79q19 19 26 19q10 0 10 -10q0 -15 -60 -76q-78 -80 -136 -80q-76 0 -76 83q0 32 13 78z" />
    <glyph glyph-name="b" unicode="b" horiz-adv-x="645" 
d="M451 337q55 68 87 98q55 50 119 50q63 0 102 -43q34 -38 34 -100q0 -143 -151 -252q-147 -105 -261 -105q-100 0 -100 88q0 36 25 121l308 1054q11 38 16 63q12 56 50 67l59 17q11 3 18 3q15 0 15 -16q0 -6 -16 -59zM628 443q-52 0 -163 -155q-105 -147 -105 -217
q0 -44 44 -44q72 0 154 96q56 65 93 137t37 114q0 28 -18 48.5t-42 20.5z" />
    <glyph glyph-name="c" unicode="c" horiz-adv-x="531" 
d="M722 423l-11 -39q-6 -21 -14 -21q-5 0 -39 36q-39 44 -82 44q-80 0 -152 -126q-60 -105 -60 -190q0 -74 62 -74q79 0 207 91q9 6 14 6q15 0 15 -15q0 -19 -85 -78q-104 -72 -191 -72q-53 0 -86 32q-41 40 -41 101q0 137 115 257q105 110 235 110q116 0 116 -44
q0 -8 -3 -18z" />
    <glyph glyph-name="d" unicode="d" horiz-adv-x="683" 
d="M618 164q-59 -77 -94 -114q-61 -65 -136 -65q-59 0 -92 35q-39 42 -39 105q0 131 127 257q105 103 244 103q38 0 80 -12l226 769q23 77 32 92q9 14 26 23l75 38q11 5 18 5q18 0 18 -19q0 -8 -5 -20q-11 -31 -16 -45l-353 -1113q-29 -91 -29 -118q0 -32 24 -32
q37 0 130 93q20 19 24 19q14 0 14 -14q0 -26 -87 -104q-70 -62 -119 -62q-76 0 -76 92q0 21 8 87zM695 432q-43 11 -70 11q-106 0 -186 -109q-77 -106 -77 -203q0 -35 17 -58q20 -27 47 -27q59 0 142 111q75 98 127 275z" />
    <glyph glyph-name="e" unicode="e" horiz-adv-x="531" 
d="M360 101q3 -32 23.5 -53t49.5 -21q55 0 132 49q19 13 98 83q10 9 18 9q12 0 12 -13q0 -20 -70 -77q-116 -93 -229 -93q-60 0 -98 35q-41 36 -41 92q0 125 121 253q113 120 229 120q51 0 82 -31q26 -27 26 -67q0 -94 -127 -176q-54 -35 -226 -110zM361 143q121 53 185 108
q62 54 62 134q0 58 -40 58q-47 0 -107 -96q-62 -99 -100 -204z" />
    <glyph glyph-name="f" unicode="f" horiz-adv-x="455" 
d="M352 227q-74 11 -74 22q0 4 12 13q64 49 90 82l30 102q150 511 217 680q90 228 189 352q56 71 107 71q62 0 62 -138q0 -260 -149 -543q-98 -187 -325 -474l-36 -117q97 24 182 80q29 21 37 21q12 0 12 -12q0 -23 -78 -64q-79 -41 -162 -62q-96 -336 -179 -589
q-15 -44 -19 -57q-15 -49 -43 -63l-82 -33q-18 -8 -25 -8q-12 0 -12 14q0 9 20 57q16 40 106 297q98 303 120 369zM554 543q140 179 258 458q132 314 132 471q0 35 -13 35q-38 0 -137.5 -253t-239.5 -711z" />
    <glyph glyph-name="g" unicode="g" horiz-adv-x="645" 
d="M560 -11l79 229q-107 -130 -143 -165q-70 -68 -121 -68q-49 0 -83 39q-32 38 -32 92q0 68 41 144t108 132q112 93 262 93q119 0 119 -39q0 -7 -4 -14l-8 -18q-58 29 -102 29q-120 0 -219 -123q-92 -115 -92 -214q0 -53 41 -53q61 0 149 107q78 95 119 175q18 38 39 38
q7 0 17 -2l24 -4q23 -4 23 -17q0 -5 -3 -14l-80 -258l64 50q16 12 19 12q17 0 17 -19q0 -8 -13 -19l-99 -83q-11 -28 -56 -151q-71 -193 -156 -285q-85 -93 -170 -93q-34 0 -58 24q-26 26 -26 66q0 155 344 409zM541 -69q-284 -218 -284 -348q0 -51 38 -51q91 0 246 399z
" />
    <glyph glyph-name="h" unicode="h" horiz-adv-x="682" 
d="M412 202q82 116 157 198q77 85 136 85q45 0 71 -41q18 -30 18 -73q0 -89 -80 -245q-32 -61 -32 -75q0 -24 28 -24q54 0 139 91q36 38 44 38q10 0 10 -14q0 -16 -54 -70q-88 -87 -174 -87q-34 0 -58 22q-25 23 -25 60q0 47 33 127l76 183q9 20 9 36q0 30 -29 30
q-42 0 -139 -121q-115 -143 -178 -290q-12 -30 -52 -32h-44q-14 0 -14 13q0 6 5 26l333 1193q25 93 36 111q10 17 30 25l69 25q20 7 27 7q11 0 11 -12q0 -6 -9 -37z" />
    <glyph glyph-name="i" unicode="i" horiz-adv-x="379" 
d="M424 466l51 14q20 5 21 5q15 0 15 -17q0 -8 -3 -18l-100 -304q-15 -47 -15 -66q0 -27 21 -27q33 0 118 104q26 32 32 32q18 0 18 -16q0 -25 -103 -118q-77 -70 -125 -70q-69 0 -69 71q0 41 31 143l67 217q12 40 41 50zM546 782q33 0 56 -25q19 -21 19 -51q0 -34 -25 -57
q-22 -19 -51 -19q-34 0 -57 25q-19 21 -19 52q0 33 25 56q21 19 52 19z" />
    <glyph glyph-name="j" unicode="j" horiz-adv-x="341" 
d="M258 -28l111 427q11 37 42 52l66 33q16 8 23 8q12 0 12 -13q0 -7 -9 -33l-127 -378l63 57q13 12 20 12q17 0 17 -18q0 -6 -7 -13l-100 -89q-77 -260 -143 -383q-78 -144 -177 -144q-72 0 -72 70q0 101 135 258q37 44 146 154zM227 -109q-80 -77 -135 -157
q-74 -106 -74 -167q0 -35 29 -35q53 0 88 95q32 85 92 264zM519 789q33 0 56 -25q19 -21 19 -51q0 -34 -25 -57q-22 -19 -51 -19q-34 0 -57 25q-19 21 -19 52q0 33 25 56q21 19 52 19z" />
    <glyph glyph-name="k" unicode="k" horiz-adv-x="645" 
d="M410 198q98 143 150 195q93 92 177 92q42 0 70 -29q25 -27 25 -66q0 -129 -226 -230q38 -46 134 -106q9 -6 9 -10q0 -7 -11 -18l-28 -29q-12 -12 -24 -12q-20 0 -88 61q-81 73 -81 88q0 8 44 33q54 31 113 99q53 61 53 113q0 38 -36 38q-33 0 -95 -52.5t-120 -129.5
q-70 -93 -113 -211q-9 -24 -34 -24h-50q-20 0 -20 12q0 3 6 24l359 1277q10 36 37 49l71 32q14 6 17 6q10 0 10 -11q0 -7 -4 -20z" />
    <glyph glyph-name="l" unicode="l" horiz-adv-x="417" 
d="M352 312l-36 -27q-9 -8 -17 -8q-14 0 -14 17q0 12 15 25l69 62q162 576 289 848q150 320 232 320q27 0 45.5 -29.5t18.5 -72.5q0 -243 -173 -545q-81 -142 -255 -387l-94 -311q-22 -73 -22 -119q0 -32 29 -32q39 0 128 82q38 35 44 35q11 0 11 -13q0 -23 -90 -100
q-83 -72 -144 -72q-84 0 -84 92q0 50 21 129zM551 601q139 196 240 418q122 266 122 419q0 43 -22 43q-44 0 -159 -300q-61 -157 -181 -580z" />
    <glyph glyph-name="m" unicode="m" horiz-adv-x="948" 
d="M688 140q89 152 148 232q82 113 136 113q36 0 62 -31q26 -32 26 -77q0 -32 -18 -94l-53 -178q-7 -26 -7 -35q0 -18 16 -18q37 0 136 103q11 12 16 12t12.5 -6.5t7.5 -10.5q0 -14 -51 -62q-111 -103 -172 -103q-66 0 -66 64q0 22 9 52l72 247q13 43 13 65q0 28 -20 28
q-53 0 -256 -360q-50 -88 -57 -92q-6 -4 -24 -4h-61q-20 0 -20 17q0 7 4 17q46 105 91 234.5t45 155.5q0 32 -30 32q-31 0 -97 -95q-104 -149 -154 -254q-46 -96 -58 -104q-6 -3 -19 -3h-50q-7 0 -7 9q0 7 3 18l113 420q9 31 30 35l52 13q3 0 9 3q6 2 11 2q11 0 11 -11
q0 -8 -4 -22l-79 -263q66 106 123 185q79 111 142 111q75 0 75 -91q0 -65 -60 -254z" />
    <glyph glyph-name="n" unicode="n" horiz-adv-x="645" 
d="M408 191l24 36q84 119 121 167q68 91 132 91q38 0 62.5 -26.5t24.5 -69.5q0 -39 -16 -81l-81 -208q-5 -14 -5 -24q0 -23 22 -23q35 0 121 87q27 27 32 27q18 0 18 -17q0 -19 -74 -85q-91 -80 -144 -80q-70 0 -70 71q0 29 20 85l83 237q7 20 7 34q0 29 -27 29
q-33 0 -112 -108q-86 -117 -163 -264q-32 -61 -40 -64q-7 -5 -24 -5h-50q-7 0 -7 9q0 6 3 17l111 403q8 31 34 39l57 14q10 2 15 2q9 0 9 -11q0 -7 -4 -21z" />
    <glyph glyph-name="o" unicode="o" horiz-adv-x="569" 
d="M597 485q65 0 107 -41q44 -42 44 -105q0 -126 -105 -239q-106 -115 -234 -115q-67 0 -111 41q-46 43 -46 110q0 120 107 232q112 117 238 117zM575 443q-58 0 -123 -91q-95 -133 -95 -255q0 -70 55 -70q90 0 157 122q74 136 74 223q0 71 -68 71z" />
    <glyph glyph-name="p" unicode="p" horiz-adv-x="645" 
d="M399 164q77 171 116 226q70 95 156 95q61 0 103 -41q48 -49 48 -118q0 -145 -100 -255q-77 -86 -195 -86q-47 0 -87 17q-32 14 -32 34q0 13 16 29q54 -38 91 -38q79 0 147 136q55 110 55 204q0 76 -64 76q-79 0 -164 -162q-108 -205 -180 -432l-96 -307q-10 -31 -33 -38
l-55 -13q-4 -1 -8 -1q-14 0 -14 15q0 5 11 42l239 802q25 82 40 90l86 42q7 4 11 4q12 0 12 -15q0 -11 -25 -79t-63 -184z" />
    <glyph glyph-name="q" unicode="q" horiz-adv-x="683" 
d="M611 148q-76 -84 -111 -112q-63 -51 -125 -51q-47 0 -80 34q-36 36 -36 89q0 98 83 204q136 173 350 173q104 0 104 -34q0 -20 -23 -20q-7 0 -18 3q-41 9 -67 9q-130 0 -234 -128q-90 -113 -90 -202q0 -60 58 -60q108 0 285 302q12 22 37 23h26q23 0 23 -13q0 -4 -4 -17
l-112 -306q78 22 162 104q27 28 38 28t11 -10q0 -41 -162 -145q9 -71 9 -118q0 -149 -71 -276q-76 -135 -171 -135q-28 0 -51 18q-29 22 -29 57q0 31 15 72zM664 7l-117 -327q-29 -82 -29 -98q0 -24 19 -24q41 0 93 93q64 113 64 239q0 80 -30 117z" />
    <glyph glyph-name="r" unicode="r" horiz-adv-x="455" 
d="M394 201l90 151q79 133 138 133q54 0 54 -106q0 -61 -9 -80q-7 -13 -30 -27l-46 -29q-12 -7 -20 -7q-7 0 -7 9q0 6 8 25q23 52 23 91q0 21 -15 21q-21 0 -76 -83q-81 -124 -148 -284q-6 -14 -24 -15h-49q-25 0 -25 13q0 5 24 83q59 185 75 317q4 30 25 38l78 30
q11 4 14 4q8 0 8 -9q0 -6 -4 -15q-36 -88 -84 -260z" />
    <glyph glyph-name="s" unicode="s" horiz-adv-x="455" 
d="M479 395l-164 -169q-10 -10 -16 -10q-14 -1 -14 18q0 8 12 21l8 9l147 158q24 26 48 92q23 62 79 62q40 0 40 -41q0 -20 -22 -42l-55 -55q77 -142 77 -234q0 -88 -59 -149q-67 -70 -180 -70q-54 0 -96 22q-51 26 -51 63q0 40 48 40q41 0 79 -38q44 -45 74 -45q34 0 58 41
q22 38 22 98q0 109 -35 229z" />
    <glyph glyph-name="t" unicode="t" horiz-adv-x="379" 
d="M417 604l85 303q8 33 37 40l38 8q13 3 24 3q23 0 23 -20q0 -9 -7 -34l-91 -300h116q19 0 19 -12q0 -38 -36 -38h-111l-128 -415q-11 -35 -11 -57q0 -29 23 -29q40 0 146 99q13 12 22 12q18 0 18 -22q0 -16 -44 -55q-112 -102 -182 -102q-37 0 -61 25.5t-24 65.5
q0 45 37 167l95 311h-56q-20 0 -20 10q0 7 4 15l7 13q7 12 25 12h52z" />
    <glyph glyph-name="u" unicode="u" horiz-adv-x="683" 
d="M669 314q-20 -31 -81 -128q-125 -201 -212 -201q-79 0 -79 89q0 44 16 101l69 252q10 32 34 41l47 14q10 3 17 3q11 0 11 -11q0 -1 -28 -92l-79 -261q-11 -35 -11 -59q0 -33 28 -33q29 0 90 75q81 101 169 272q36 69 45 81q11 13 30 13h44q27 0 27 -18q0 -5 -13 -46
l-79 -249q-13 -43 -13 -66q0 -38 29 -38q21 0 115 84q12 10 19 10q14 0 14 -12q0 -16 -80 -85q-75 -65 -120 -65q-68 0 -68 85q0 46 35 164z" />
    <glyph glyph-name="v" unicode="v" horiz-adv-x="531" 
d="M399 466l48 16q11 3 15 3q12 0 12 -15q0 -12 -12 -43q-104 -269 -104 -348q0 -52 41 -52q58 0 144 146q82 139 124 274q7 24 27 29l42 7l11 2q16 1 16 -20q0 -50 -97 -202q-90 -142 -171 -220q-59 -58 -125 -58q-94 0 -94 103q0 75 75 319q15 49 48 59z" />
    <glyph glyph-name="w" unicode="w" 
d="M591 230q-145 -245 -233 -245q-38 0 -62 32q-22 28 -22 69q0 51 19 118l66 224q11 37 37 43l49 11q11 3 13 3q13 0 13 -15q0 -8 -14 -47q-98 -274 -98 -354q0 -42 26 -42q40 0 122 132q84 135 130 265q13 37 23 45q6 4 23 7l40 7q13 2 16 2q17 0 17 -16q0 -7 -5 -23
l-60 -202q-34 -117 -34 -155q0 -62 40 -62q32 0 76.5 46t78.5 115q44 88 78 259q5 24 27 29l42 7l11 2q16 1 16 -21q0 -23 -31.5 -102t-66.5 -144q-126 -233 -258 -233q-92 0 -92 127q0 48 13 118z" />
    <glyph glyph-name="x" unicode="x" horiz-adv-x="455" 
d="M511 282l63 -256q2 -7 2 -12q0 -14 -14 -14h-60q-35 1 -41 31l-32 160l-165 -174q-16 -17 -36 -17h-22q-24 0 -24 12q0 8 12 19l222 206l-55 218q-2 8 -2 12q0 16 30 16h43l16 2q19 0 24 -24l30 -127l100 131q11 14 26 16l22 3q7 1 11 1q18 0 18 -12q0 -10 -12 -23z" />
    <glyph glyph-name="y" unicode="y" horiz-adv-x="607" 
d="M549 -27l98 334q-108 -173 -142 -216q-82 -104 -150 -104q-40 0 -63 36q-18 30 -18 72q0 45 23 128l48 168q18 64 45 75l49 16q9 3 15 3q15 0 15 -18q0 -8 -8 -31l-101 -318q-10 -32 -10 -56q0 -33 31 -33q40 0 115 105q90 128 170 282q26 49 37 55q4 1 25 5l24 5
q19 4 21 4q14 0 14 -13q0 -3 -8 -34l-105 -370l65 60q13 12 19 12q18 0 18 -20q0 -5 -14 -18l-96 -87l-77 -220q-107 -305 -247 -305q-74 0 -74 75q0 72 80 183q54 75 201 225zM517 -111q-19 -21 -86 -95q-123 -135 -123 -225q0 -37 30 -37q38 0 64 41q24 38 56 135z" />
    <glyph glyph-name="z" unicode="z" horiz-adv-x="455" 
d="M325 90h58q62 0 105 3q57 4 84 4q20 0 20 -14q0 -6 -7 -22l-15 -33q-8 -18 -26 -21q-43 -7 -132 -7q-206 0 -206 28q0 15 36 50l318 304q-70 -2 -213 -9h-7q-17 0 -17 13q0 6 7 20l18 35q11 21 32 25q18 4 181 4q122 0 122 -26q0 -19 -42 -58z" />
    <glyph glyph-name="braceleft" unicode="{" horiz-adv-x="910" 
d="M857 -483q-157 22 -243 81q-113 77 -113 190q0 102 94 302q77 162 77 240q0 46 -17 72q-23 36 -152 108l15 50q124 34 180 79q59 50 85 151q21 84 28 222q6 124 20 185.5t48 114.5q131 193 447 238l-8 -50q-148 -40 -222 -97q-73 -57 -101 -129q-38 -90 -51 -251
q-17 -202 -39 -254q-40 -105 -169 -168q-59 -29 -176 -67q106 -53 144 -77q97 -62 97 -155q0 -76 -88 -256q-82 -167 -82 -247q0 -115 106 -181q37 -24 120 -51v-50z" />
    <glyph glyph-name="bar" unicode="|" horiz-adv-x="1024" 
d="M460 1536h105v-2048h-105v2048z" />
    <glyph glyph-name="braceright" unicode="}" horiz-adv-x="910" 
d="M621 1550q356 -52 356 -276q0 -94 -95 -296q-76 -163 -76 -238q0 -79 80 -129q2 -2 58 -33q16 -9 31 -18l-15 -50q-157 -43 -214 -117q-65 -87 -79 -337q-5 -124 -19 -185.5t-49 -115.5q-127 -192 -447 -238l8 50q122 33 176 65q124 73 165 209q21 65 36 239
q16 176 41 231q41 96 165 157q59 29 175 68q-105 52 -144 76q-97 61 -97 155q0 75 88 255q81 165 81 248q0 112 -106 179q-36 23 -119 51v50z" />
    <glyph glyph-name="asciitilde" unicode="~" horiz-adv-x="2048" 
d="M1616 926l43 -27q-56 -98 -108 -153q-92 -95 -214 -95q-112 0 -338 68q-217 66 -317 66q-83 0 -153 -45q-30 -19 -105 -78l-36 31q157 242 370 242q68 0 249 -53q273 -81 354 -81q148 0 255 125z" />
    <glyph glyph-name="Adieresis" unicode="&#xc4;" horiz-adv-x="1820" 
d="M1414 465q-194 -230 -351 -339q-249 -173 -581 -173q-169 0 -268 47q-17 8 -17 19q0 6 4 12l35 41q9 10 21 10q8 0 68 -31q93 -47 235 -47q249 0 439 140q229 168 498 547q63 89 418 626q158 238 208 238q54 0 54 -117q0 -182 -168 -710l-80 -250q21 1 27 1q46 4 55 4
q19 0 19 -16q0 -22 -111 -24l-155 -443h-74q-38 113 -121 250q-83 135 -155 215zM1812 441q-41 -1 -62 -1q-127 0 -274 18q159 -198 224 -370zM1443 509q126 -28 300 -28q28 0 80 1l147 477q99 331 112 384q15 56 15 97q0 21 -11 21q-16 0 -275 -405q-143 -224 -368 -547z
M1936 1817q38 0 66 -30q23 -26 23 -61q0 -41 -30 -68q-26 -23 -61 -23q-41 0 -68 30q-23 26 -23 62q0 39 30 67q26 23 63 23zM2280 1817q39 0 67 -30q23 -26 23 -61q0 -41 -30 -68q-26 -23 -61 -23q-41 0 -68 30q-23 26 -23 62q0 39 30 67q26 23 62 23z" />
    <glyph glyph-name="Aring" unicode="&#xc5;" horiz-adv-x="1820" 
d="M1414 465q-194 -230 -351 -339q-249 -173 -581 -173q-169 0 -268 47q-17 8 -17 19q0 6 4 12l35 41q9 10 21 10q8 0 68 -31q93 -47 235 -47q249 0 439 140q229 168 498 547q63 89 418 626q158 238 208 238q54 0 54 -117q0 -182 -168 -710l-80 -250q21 1 27 1q46 4 55 4
q19 0 19 -16q0 -22 -111 -24l-155 -443h-74q-38 113 -121 250q-83 135 -155 215zM1812 441q-41 -1 -62 -1q-127 0 -274 18q159 -198 224 -370zM1443 509q126 -28 300 -28q28 0 80 1l147 477q99 331 112 384q15 56 15 97q0 21 -11 21q-16 0 -275 -405q-143 -224 -368 -547z
M2142 1890q69 0 114 -48q32 -35 32 -80q0 -52 -43 -89q-43 -38 -105 -38q-71 0 -116 48q-32 35 -32 80q0 51 42 89q43 38 108 38zM2138 1843q-45 0 -76 -29q-23 -23 -23 -51q0 -34 31 -58q29 -23 70 -23q48 0 78 29q23 23 23 52q0 33 -30 57q-29 23 -73 23z" />
    <glyph glyph-name="Ccedilla" unicode="&#xc7;" horiz-adv-x="1138" 
d="M1072 1002l18 60q8 23 36 34q169 65 271 141q126 94 126 158q0 35 -36 56.5t-94 21.5q-145 0 -350 -124q-166 -101 -337 -316q-277 -348 -277 -659q0 -169 103 -273q98 -98 252 -98q129 0 279 62q94 40 144 72q43 27 51 27q21 0 21 -30q0 -8 -97 -63q-206 -118 -436 -118
q-208 0 -316 122q-97 108 -97 303q0 293 215 592q224 313 517 459q189 94 348 94q69 0 113 -33q56 -41 56 -108q0 -157 -256 -313q-88 -55 -180 -87q-42 -14 -59 -14q-19 0 -19 12q0 8 4 22zM727 -225q-65 5 -65 52q0 32 28 54q21 17 49 17q65 0 65 -61q0 -54 -64 -121
q-67 -71 -105 -71q-16 0 -16 12q0 6 11 14q66 47 97 104z" />
    <glyph glyph-name="Eacute" unicode="&#xc9;" horiz-adv-x="1176" 
d="M1302 175l-17 -65q-7 -31 -43 -44q-299 -113 -534 -113q-221 0 -329 87q-98 80 -98 207q0 165 166 353q118 134 294 223q121 62 121 75q0 9 -33 45q-73 78 -73 141q0 168 265 321q205 118 409 118q93 0 143 -32q58 -37 58 -96q0 -84 -117 -282q-34 -58 -44 -58
q-8 0 -17 14l-26 43q-12 20 -12 27q0 9 10 23q110 163 110 236q0 35 -35 57q-29 18 -68 18q-88 0 -194.5 -37.5t-185.5 -96.5q-89 -67 -146 -152q-54 -80 -54 -142q0 -38 37 -112q32 -64 32 -94q0 -35 -38 -64q-16 -12 -110 -67q-187 -110 -276 -221q-120 -150 -120 -290
q0 -84 65 -140q61 -54 177 -54q166 0 433 102q159 60 225 97q11 6 18 6q11 0 11 -11q0 -4 -4 -22zM1683 1903l-207 -244q-14 -17 -27 -21h-43l-17 -3q-7 0 -7 6q0 3 9 18l158 247q16 24 48 24h73q24 0 24 -8q0 -6 -11 -19z" />
    <glyph glyph-name="Ntilde" unicode="&#xd1;" horiz-adv-x="1214" 
d="M674 248q265 511 415 763q275 465 446 465q52 0 84 -47q33 -47 33 -123q0 -94 -43 -252q-21 -77 -104 -332q-107 -335 -222 -732q-45 -163 -55 -163q-2 0 -16 12l-56 46q-16 14 -16 26t104 321l84 251q187 555 213 640q52 169 52 240q0 63 -50 63q-146 0 -423 -477
q-94 -162 -266.5 -480.5t-247.5 -468.5h-102q111 344 223 755q174 631 174 699q0 38 -20 38t-83 -103q-64 -105 -142.5 -262t-105.5 -236q-16 -45 -29 -45q-6 0 -16 13l-36 44q-12 15 -12 25q0 15 57.5 131t106.5 201q164 282 259 282q80 0 80 -160q0 -166 -172 -748z
M1237 1832q68 0 169 -55q98 -53 145 -53q83 0 126 82q18 34 32 34q12 0 12 -12q0 -44 -59 -112q-69 -81 -143 -81q-54 0 -246 85q-52 23 -103 23q-70 0 -109 -76q-20 -39 -33 -39t-12 12q0 6 51 101q21 39 69.5 65t100.5 26z" />
    <glyph glyph-name="Odieresis" unicode="&#xd6;" horiz-adv-x="1403" 
d="M1245 1523q190 0 318 -152q140 -167 140 -420q0 -237 -126 -472q-130 -246 -344 -395q-188 -131 -376 -131q-201 0 -334 146q-144 156 -144 403q0 228 129 470q142 265 355 416q190 135 382 135zM1247 1473q-181 0 -361 -144q-199 -159 -320 -441q-91 -214 -91 -416
q0 -207 107 -347q93 -122 248 -122q170 0 344 125q185 134 309 388q124 253 124 488q0 221 -112 358q-91 111 -248 111zM1114 1817q38 0 66 -30q23 -26 23 -61q0 -41 -30 -68q-26 -23 -61 -23q-41 0 -68 30q-23 26 -23 62q0 39 30 67q26 23 63 23zM1458 1817q39 0 67 -30
q23 -26 23 -61q0 -41 -30 -68q-26 -23 -61 -23q-41 0 -68 30q-23 26 -23 62q0 39 30 67q26 23 62 23z" />
    <glyph glyph-name="Udieresis" unicode="&#xdc;" horiz-adv-x="1289" 
d="M1454 849q-225 -454 -370 -642q-197 -254 -378 -254q-91 0 -145 59q-49 56 -49 142q0 109 59 322q98 349 243 776q51 149 51 200q0 36 -22 36q-67 0 -279 -445q-10 -23 -21 -23q-6 0 -18 14l-28 31q-13 14 -13 27q0 23 114 204q152 243 271 243q34 0 54 -16
q42 -34 42 -103q0 -122 -198 -695q-159 -461 -159 -600q0 -58 38 -91q35 -31 84 -31q120 0 260.5 158t311.5 484q196 375 333 803q10 28 40 28h55q25 0 25 -22q0 -8 -6 -21q-238 -677 -458 -1574q-6 -31 -20 -31q-8 0 -21 5l-58 25q-16 7 -16 21q0 91 244 862zM1193 1817
q38 0 66 -30q23 -26 23 -61q0 -41 -30 -68q-26 -23 -61 -23q-41 0 -68 30q-23 26 -23 62q0 39 30 67q26 23 63 23zM1537 1817q39 0 67 -30q23 -26 23 -61q0 -41 -30 -68q-26 -23 -61 -23q-41 0 -68 30q-23 26 -23 62q0 39 30 67q26 23 62 23z" />
    <glyph glyph-name="aacute" unicode="&#xe1;" horiz-adv-x="683" 
d="M626 201l-49 -62q-121 -154 -213 -154q-43 0 -72 34q-27 32 -27 80q0 85 69 192q124 194 298 194q66 0 66 -21q0 -9 -4 -17l-17 -34q-44 30 -78 30q-81 0 -160 -141q-69 -125 -69 -197q0 -52 45 -52q62 0 156 133q97 136 156 262q9 21 32 22h36q23 0 23 -14q0 -6 -5 -19
l-99 -281q-19 -54 -19 -75q0 -28 27 -28q33 0 112 79q19 19 26 19q10 0 10 -10q0 -15 -60 -76q-78 -80 -136 -80q-76 0 -76 83q0 32 13 78zM608 602l161 150q18 16 46 16h69q22 0 22 -6q0 -5 -8 -10l-209 -150q-15 -11 -36 -14l-44 -6l-6 -1q-6 0 -6 6q0 5 11 15z" />
    <glyph glyph-name="agrave" unicode="&#xe0;" horiz-adv-x="683" 
d="M626 201l-49 -62q-121 -154 -213 -154q-43 0 -72 34q-27 32 -27 80q0 85 69 192q124 194 298 194q66 0 66 -21q0 -9 -4 -17l-17 -34q-44 30 -78 30q-81 0 -160 -141q-69 -125 -69 -197q0 -52 45 -52q62 0 156 133q97 136 156 262q9 21 32 22h36q23 0 23 -14q0 -6 -5 -19
l-99 -281q-19 -54 -19 -75q0 -28 27 -28q33 0 112 79q19 19 26 19q10 0 10 -10q0 -15 -60 -76q-78 -80 -136 -80q-76 0 -76 83q0 32 13 78zM609 752l165 -154q7 -7 7 -11q0 -5 -7 -5h-7l-36 5q-24 3 -43 15l-212 153q-5 4 -5 7q0 5 18 6h73q28 0 47 -16z" />
    <glyph glyph-name="acircumflex" unicode="&#xe2;" horiz-adv-x="683" 
d="M626 201l-49 -62q-121 -154 -213 -154q-43 0 -72 34q-27 32 -27 80q0 85 69 192q124 194 298 194q66 0 66 -21q0 -9 -4 -17l-17 -34q-44 30 -78 30q-81 0 -160 -141q-69 -125 -69 -197q0 -52 45 -52q62 0 156 133q97 136 156 262q9 21 32 22h36q23 0 23 -14q0 -6 -5 -19
l-99 -281q-19 -54 -19 -75q0 -28 27 -28q33 0 112 79q19 19 26 19q10 0 10 -10q0 -15 -60 -76q-78 -80 -136 -80q-76 0 -76 83q0 32 13 78zM733 676q-138 -95 -242 -95q-31 0 -31 13q0 8 16 16q109 51 182 127q28 31 47 31h49q16 0 20 -4q3 -3 17 -36q31 -69 84 -133
q4 -6 4 -11q0 -10 -11 -10q-22 0 -77 45q-30 25 -58 57z" />
    <glyph glyph-name="adieresis" unicode="&#xe4;" horiz-adv-x="683" 
d="M564 718q29 0 49 -23q18 -19 18 -45q0 -30 -23 -50q-19 -18 -45 -18q-30 0 -50 23q-18 19 -18 46t20 47t49 20zM766 718q29 0 49 -23q18 -19 18 -45q0 -30 -23 -50q-19 -18 -45 -18q-30 0 -50 23q-18 19 -18 46q0 28 20 47.5t49 19.5zM626 201l-49 -62
q-121 -154 -213 -154q-43 0 -72 34q-27 32 -27 80q0 85 69 192q124 194 298 194q66 0 66 -21q0 -9 -4 -17l-17 -34q-44 30 -78 30q-81 0 -160 -141q-69 -125 -69 -197q0 -52 45 -52q62 0 156 133q97 136 156 262q9 21 32 22h36q23 0 23 -14q0 -6 -5 -19l-99 -281
q-19 -54 -19 -75q0 -28 27 -28q33 0 112 79q19 19 26 19q10 0 10 -10q0 -15 -60 -76q-78 -80 -136 -80q-76 0 -76 83q0 32 13 78z" />
    <glyph glyph-name="atilde" unicode="&#xe3;" horiz-adv-x="683" 
d="M626 201l-49 -62q-121 -154 -213 -154q-43 0 -72 34q-27 32 -27 80q0 85 69 192q124 194 298 194q66 0 66 -21q0 -9 -4 -17l-17 -34q-44 30 -78 30q-81 0 -160 -141q-69 -125 -69 -197q0 -52 45 -52q62 0 156 133q97 136 156 262q9 21 32 22h36q23 0 23 -14q0 -6 -5 -19
l-99 -281q-19 -54 -19 -75q0 -28 27 -28q33 0 112 79q19 19 26 19q10 0 10 -10q0 -15 -60 -76q-78 -80 -136 -80q-76 0 -76 83q0 32 13 78zM595 712q25 0 95 -35q47 -23 76 -23q38 0 57 38q15 30 22 30q13 0 13 -17q0 -28 -33 -69q-43 -54 -106 -54q-36 0 -97 32
q-48 26 -74 26q-36 0 -55 -34q-14 -24 -24 -24q-9 0 -9 9q0 21 23 54q45 67 112 67z" />
    <glyph glyph-name="aring" unicode="&#xe5;" horiz-adv-x="683" 
d="M626 201l-49 -62q-121 -154 -213 -154q-43 0 -72 34q-27 32 -27 80q0 85 69 192q124 194 298 194q66 0 66 -21q0 -9 -4 -17l-17 -34q-44 30 -78 30q-81 0 -160 -141q-69 -125 -69 -197q0 -52 45 -52q62 0 156 133q97 136 156 262q9 21 32 22h36q23 0 23 -14q0 -6 -5 -19
l-99 -281q-19 -54 -19 -75q0 -28 27 -28q33 0 112 79q19 19 26 19q10 0 10 -10q0 -15 -60 -76q-78 -80 -136 -80q-76 0 -76 83q0 32 13 78zM708 808q51 0 88 -37q32 -33 32 -76q0 -50 -41 -84q-35 -29 -82 -29q-54 0 -90 37q-32 32 -32 77q0 49 41 83q34 29 84 29zM704 763
q-33 0 -56 -22q-20 -20 -20 -46q0 -31 26 -51q22 -17 51 -17q35 0 58 22q20 20 20 46q0 30 -26 51q-22 17 -53 17z" />
    <glyph glyph-name="ccedilla" unicode="&#xe7;" horiz-adv-x="531" 
d="M721 423l-11 -39q-6 -21 -14 -21q-5 0 -38 36q-40 44 -83 44q-80 0 -152 -126q-60 -104 -60 -189q0 -75 63 -75q77 0 207 91q9 6 14 6q15 0 15 -15q0 -19 -85 -78q-105 -72 -191 -72q-53 0 -87 32q-41 40 -41 101q0 137 115 257q106 110 235 110q116 0 116 -46
q0 -7 -3 -16zM365 -203q-62 6 -62 47q0 34 30 57q22 17 51 17q60 0 60 -55q0 -72 -90 -141q-62 -49 -91 -49q-13 0 -13 10t27 26q56 36 88 88z" />
    <glyph glyph-name="eacute" unicode="&#xe9;" horiz-adv-x="531" 
d="M360 101q3 -32 23.5 -53t49.5 -21q55 0 132 49q19 13 98 83q10 9 18 9q12 0 12 -13q0 -20 -70 -77q-116 -93 -229 -93q-60 0 -98 35q-41 36 -41 92q0 125 121 253q113 120 229 120q51 0 82 -31q26 -27 26 -67q0 -94 -127 -176q-54 -35 -226 -110zM361 143q121 53 185 108
q62 54 62 134q0 58 -40 58q-47 0 -107 -96q-62 -99 -100 -204zM539 602l161 150q18 16 46 16h69q22 0 22 -6q0 -5 -8 -10l-209 -150q-15 -11 -36 -14l-44 -6l-6 -1q-6 0 -6 6q0 5 11 15z" />
    <glyph glyph-name="egrave" unicode="&#xe8;" horiz-adv-x="531" 
d="M360 101q3 -32 23.5 -53t49.5 -21q55 0 132 49q19 13 98 83q10 9 18 9q12 0 12 -13q0 -20 -70 -77q-116 -93 -229 -93q-60 0 -98 35q-41 36 -41 92q0 125 121 253q113 120 229 120q51 0 82 -31q26 -27 26 -67q0 -94 -127 -176q-54 -35 -226 -110zM361 143q121 53 185 108
q62 54 62 134q0 58 -40 58q-47 0 -107 -96q-62 -99 -100 -204zM534 752l165 -154q7 -7 7 -11q0 -5 -7 -5h-7l-36 5q-24 3 -43 15l-212 153q-5 4 -5 7q0 5 18 6h73q28 0 47 -16z" />
    <glyph glyph-name="ecircumflex" unicode="&#xea;" horiz-adv-x="531" 
d="M360 101q3 -32 23.5 -53t49.5 -21q55 0 132 49q19 13 98 83q10 9 18 9q12 0 12 -13q0 -20 -70 -77q-116 -93 -229 -93q-60 0 -98 35q-41 36 -41 92q0 125 121 253q113 120 229 120q51 0 82 -31q26 -27 26 -67q0 -94 -127 -176q-54 -35 -226 -110zM361 143q121 53 185 108
q62 54 62 134q0 58 -40 58q-47 0 -107 -96q-62 -99 -100 -204zM637 676q-138 -95 -242 -95q-31 0 -31 13q0 8 16 16q109 51 182 127q28 31 47 31h49q16 0 20 -4q3 -3 17 -36q31 -69 84 -133q4 -6 4 -11q0 -10 -11 -10q-22 0 -77 45q-30 25 -58 57z" />
    <glyph glyph-name="edieresis" unicode="&#xeb;" horiz-adv-x="531" 
d="M360 101q3 -32 23.5 -53t49.5 -21q55 0 132 49q19 13 98 83q10 9 18 9q12 0 12 -13q0 -20 -70 -77q-116 -93 -229 -93q-60 0 -98 35q-41 36 -41 92q0 125 121 253q113 120 229 120q51 0 82 -31q26 -27 26 -67q0 -94 -127 -176q-54 -35 -226 -110zM361 143q121 53 185 108
q62 54 62 134q0 58 -40 58q-47 0 -107 -96q-62 -99 -100 -204zM510 718q29 0 49 -23q18 -19 18 -45q0 -30 -23 -50q-19 -18 -45 -18q-30 0 -50 23q-18 19 -18 46t20.5 47t48.5 20zM712 718q29 0 49 -23q18 -19 18 -45q0 -30 -23 -50q-19 -18 -45 -18q-30 0 -50 23
q-18 19 -18 46t20 47t49 20z" />
    <glyph glyph-name="iacute" unicode="&#xed;" horiz-adv-x="379" 
d="M424 466l51 14q20 5 21 5q15 0 15 -17q0 -8 -3 -18l-100 -304q-15 -47 -15 -66q0 -27 21 -27q33 0 118 104q26 32 32 32q18 0 18 -16q0 -25 -103 -118q-77 -70 -125 -70q-69 0 -69 71q0 41 31 143l67 217q12 40 41 50zM457 602l161 150q18 16 46 16h69q22 0 22 -6
q0 -5 -8 -10l-209 -150q-15 -11 -36 -14l-44 -6l-6 -1q-6 0 -6 6q0 5 11 15z" />
    <glyph glyph-name="igrave" unicode="&#xec;" horiz-adv-x="379" 
d="M424 466l51 14q20 5 21 5q15 0 15 -17q0 -8 -3 -18l-100 -304q-15 -47 -15 -66q0 -27 21 -27q33 0 118 104q26 32 32 32q18 0 18 -16q0 -25 -103 -118q-77 -70 -125 -70q-69 0 -69 71q0 41 31 143l67 217q12 40 41 50zM458 752l165 -154q7 -7 7 -11q0 -5 -7 -5h-7l-36 5
q-24 3 -43 15l-212 153q-5 4 -5 7q0 5 18 6h73q28 0 47 -16z" />
    <glyph glyph-name="icircumflex" unicode="&#xee;" horiz-adv-x="379" 
d="M424 466l51 14q20 5 21 5q15 0 15 -17q0 -8 -3 -18l-100 -304q-15 -47 -15 -66q0 -27 21 -27q33 0 118 104q26 32 32 32q18 0 18 -16q0 -25 -103 -118q-77 -70 -125 -70q-69 0 -69 71q0 41 31 143l67 217q12 40 41 50zM527 676q-138 -95 -242 -95q-31 0 -31 13q0 8 16 16
q109 51 182 127q28 31 47 31h49q16 0 20 -4q3 -3 17 -36q31 -69 84 -133q4 -6 4 -11q0 -10 -11 -10q-22 0 -77 45q-30 25 -58 57z" />
    <glyph glyph-name="idieresis" unicode="&#xef;" horiz-adv-x="379" 
d="M424 466l51 14q20 5 21 5q15 0 15 -17q0 -8 -3 -18l-100 -304q-15 -47 -15 -66q0 -27 21 -27q33 0 118 104q26 32 32 32q18 0 18 -16q0 -25 -103 -118q-77 -70 -125 -70q-69 0 -69 71q0 41 31 143l67 217q12 40 41 50zM413 718q29 0 49 -23q18 -19 18 -45q0 -30 -23 -50
q-19 -18 -45 -18q-28 0 -48 20t-20 49q0 28 20 47.5t49 19.5zM616 719q29 0 49 -23q18 -20 18 -45q0 -30 -23 -51q-20 -18 -45 -18q-31 0 -51 23q-18 20 -18 46q0 28 20.5 48t49.5 20z" />
    <glyph glyph-name="ntilde" unicode="&#xf1;" horiz-adv-x="645" 
d="M408 191l24 36q84 119 121 167q68 91 132 91q38 0 62.5 -26.5t24.5 -69.5q0 -39 -16 -81l-81 -208q-5 -14 -5 -24q0 -23 22 -23q35 0 121 87q27 27 32 27q18 0 18 -17q0 -19 -74 -85q-91 -80 -144 -80q-70 0 -70 71q0 29 20 85l83 237q7 20 7 34q0 29 -27 29
q-33 0 -112 -108q-86 -117 -163 -264q-32 -61 -40 -64q-7 -5 -24 -5h-50q-7 0 -7 9q0 6 3 17l111 403q8 31 34 39l57 14q10 2 15 2q9 0 9 -11q0 -7 -4 -21zM577 712q25 0 95 -35q47 -23 76 -23q38 0 57 38q15 30 22 30q13 0 13 -17q0 -28 -33 -69q-43 -54 -106 -54
q-36 0 -97 32q-48 26 -74 26q-36 0 -55 -34q-14 -24 -24 -24q-9 0 -9 9q0 21 23 54q45 67 112 67z" />
    <glyph glyph-name="oacute" unicode="&#xf3;" horiz-adv-x="569" 
d="M597 485q65 0 107 -41q44 -42 44 -105q0 -126 -105 -239q-106 -115 -234 -115q-67 0 -111 41q-46 43 -46 110q0 120 107 232q112 117 238 117zM575 443q-58 0 -123 -91q-95 -133 -95 -255q0 -70 55 -70q90 0 157 122q74 136 74 223q0 71 -68 71zM561 602l161 150
q18 16 46 16h69q22 0 22 -6q0 -5 -8 -10l-209 -150q-15 -11 -36 -14l-44 -6l-6 -1q-6 0 -6 6q0 5 11 15z" />
    <glyph glyph-name="ograve" unicode="&#xf2;" horiz-adv-x="569" 
d="M597 485q65 0 107 -41q44 -42 44 -105q0 -126 -105 -239q-106 -115 -234 -115q-67 0 -111 41q-46 43 -46 110q0 120 107 232q112 117 238 117zM575 443q-58 0 -123 -91q-95 -133 -95 -255q0 -70 55 -70q90 0 157 122q74 136 74 223q0 71 -68 71zM553 752l165 -154
q7 -7 7 -11q0 -5 -7 -5h-7l-36 5q-24 3 -43 15l-212 153q-5 4 -5 7q0 5 18 6h73q28 0 47 -16z" />
    <glyph glyph-name="ocircumflex" unicode="&#xf4;" horiz-adv-x="569" 
d="M597 485q65 0 107 -41q44 -42 44 -105q0 -126 -105 -239q-106 -115 -234 -115q-67 0 -111 41q-46 43 -46 110q0 120 107 232q112 117 238 117zM575 443q-58 0 -123 -91q-95 -133 -95 -255q0 -70 55 -70q90 0 157 122q74 136 74 223q0 71 -68 71zM656 676
q-138 -95 -242 -95q-31 0 -31 13q0 8 16 16q109 51 182 127q28 31 47 31h49q16 0 20 -4q3 -3 17 -36q31 -69 84 -133q4 -6 4 -11q0 -10 -11 -10q-22 0 -77 45q-30 25 -58 57z" />
    <glyph glyph-name="odieresis" unicode="&#xf6;" horiz-adv-x="569" 
d="M597 485q65 0 107 -41q44 -42 44 -105q0 -126 -105 -239q-106 -115 -234 -115q-67 0 -111 41q-46 43 -46 110q0 120 107 232q112 117 238 117zM575 443q-58 0 -123 -91q-95 -133 -95 -255q0 -70 55 -70q90 0 157 122q74 136 74 223q0 71 -68 71zM535 718q29 0 50 -23
q17 -19 17 -45q0 -30 -23 -50q-19 -18 -45 -18q-28 0 -48 20t-20 49q0 28 20 47.5t49 19.5zM738 719q29 0 49 -23q18 -20 18 -45q0 -30 -23 -51q-19 -18 -45 -18q-31 0 -51 23q-18 20 -18 46q0 28 20.5 48t49.5 20z" />
    <glyph glyph-name="otilde" unicode="&#xf5;" horiz-adv-x="569" 
d="M597 485q65 0 107 -41q44 -42 44 -105q0 -126 -105 -239q-106 -115 -234 -115q-67 0 -111 41q-46 43 -46 110q0 120 107 232q112 117 238 117zM575 443q-58 0 -123 -91q-95 -133 -95 -255q0 -70 55 -70q90 0 157 122q74 136 74 223q0 71 -68 71zM539 712q25 0 95 -35
q47 -23 76 -23q38 0 57 38q15 30 22 30q13 0 13 -17q0 -28 -33 -69q-43 -54 -106 -54q-36 0 -97 32q-48 26 -74 26q-36 0 -55 -34q-14 -24 -24 -24q-9 0 -9 9q0 21 23 54q45 67 112 67z" />
    <glyph glyph-name="uacute" unicode="&#xfa;" horiz-adv-x="683" 
d="M669 314q-20 -31 -81 -128q-125 -201 -212 -201q-79 0 -79 89q0 44 16 101l69 252q10 32 34 41l47 14q10 3 17 3q11 0 11 -11q0 -1 -28 -92l-79 -261q-11 -35 -11 -59q0 -33 28 -33q29 0 90 75q81 101 169 272q36 69 45 81q11 13 30 13h44q27 0 27 -18q0 -5 -13 -46
l-79 -249q-13 -43 -13 -66q0 -38 29 -38q21 0 115 84q12 10 19 10q14 0 14 -12q0 -16 -80 -85q-75 -65 -120 -65q-68 0 -68 85q0 46 35 164zM608 602l161 150q18 16 46 16h69q22 0 22 -6q0 -5 -8 -10l-209 -150q-15 -11 -36 -14l-44 -6l-6 -1q-6 0 -6 6q0 5 11 15z" />
    <glyph glyph-name="ugrave" unicode="&#xf9;" horiz-adv-x="683" 
d="M669 314q-20 -31 -81 -128q-125 -201 -212 -201q-79 0 -79 89q0 44 16 101l69 252q10 32 34 41l47 14q10 3 17 3q11 0 11 -11q0 -1 -28 -92l-79 -261q-11 -35 -11 -59q0 -33 28 -33q29 0 90 75q81 101 169 272q36 69 45 81q11 13 30 13h44q27 0 27 -18q0 -5 -13 -46
l-79 -249q-13 -43 -13 -66q0 -38 29 -38q21 0 115 84q12 10 19 10q14 0 14 -12q0 -16 -80 -85q-75 -65 -120 -65q-68 0 -68 85q0 46 35 164zM609 752l165 -154q7 -7 7 -11q0 -5 -7 -5h-7l-36 5q-24 3 -43 15l-212 153q-5 4 -5 7q0 5 18 6h73q28 0 47 -16z" />
    <glyph glyph-name="ucircumflex" unicode="&#xfb;" horiz-adv-x="683" 
d="M669 314q-20 -31 -81 -128q-125 -201 -212 -201q-79 0 -79 89q0 44 16 101l69 252q10 32 34 41l47 14q10 3 17 3q11 0 11 -11q0 -1 -28 -92l-79 -261q-11 -35 -11 -59q0 -33 28 -33q29 0 90 75q81 101 169 272q36 69 45 81q11 13 30 13h44q27 0 27 -18q0 -5 -13 -46
l-79 -249q-13 -43 -13 -66q0 -38 29 -38q21 0 115 84q12 10 19 10q14 0 14 -12q0 -16 -80 -85q-75 -65 -120 -65q-68 0 -68 85q0 46 35 164zM692 676q-138 -95 -242 -95q-31 0 -31 13q0 8 16 16q109 51 182 127q28 31 47 31h49q16 0 20 -4q3 -3 17 -36q31 -69 84 -133
q4 -6 4 -11q0 -10 -11 -10q-22 0 -77 45q-30 25 -58 57z" />
    <glyph glyph-name="udieresis" unicode="&#xfc;" horiz-adv-x="683" 
d="M669 314q-20 -31 -81 -128q-125 -201 -212 -201q-79 0 -79 89q0 44 16 101l69 252q10 32 34 41l47 14q10 3 17 3q11 0 11 -11q0 -1 -28 -92l-79 -261q-11 -35 -11 -59q0 -33 28 -33q29 0 90 75q81 101 169 272q36 69 45 81q11 13 30 13h44q27 0 27 -18q0 -5 -13 -46
l-79 -249q-13 -43 -13 -66q0 -38 29 -38q21 0 115 84q12 10 19 10q14 0 14 -12q0 -16 -80 -85q-75 -65 -120 -65q-68 0 -68 85q0 46 35 164zM565 718q29 0 50 -22q17 -20 17 -46q0 -30 -23 -50q-20 -18 -45 -18q-30 0 -50 23q-18 19 -18 46t20 47t49 20zM767 719
q28 0 49 -23q18 -20 18 -46q0 -29 -23 -50q-20 -18 -45 -18q-31 0 -51 23q-18 20 -18 46q0 29 23 50q20 18 47 18z" />
    <glyph glyph-name="dagger" unicode="&#x2020;" 
d="M725 -199q1 264 -5 407q-7 119 -31 182q-7 18 -20 52q31 39 39 59q7 17 17 71q-55 -2 -153 -38q-19 -7 -35 -7q-60 0 -60 70q0 35 21 56q18 17 41 17q17 0 81 -25q56 -20 105 -20q-1 22 -1 30q-2 63 -9 94q-5 16 -25 78q-10 33 -10 63q0 70 71 70q72 0 72 -70
q0 -30 -28 -117q-17 -57 -17 -148q52 0 105 20q61 25 80 25q63 0 63 -73q0 -70 -62 -70q-17 0 -83 25q-53 19 -103 20q12 -76 56 -130l-11 -28q-30 -80 -36 -153q-10 -151 -9 -460h-53z" />
    <glyph glyph-name="degree" unicode="&#xb0;" 
d="M784 947q79 0 135 -62q48 -53 48 -124q0 -83 -62 -139q-53 -48 -124 -48q-83 0 -139 62q-48 53 -48 126q0 80 62 137q53 48 128 48zM779 882q-52 0 -89 -40q-31 -34 -31 -81q0 -54 40 -91q35 -31 82 -31q54 0 90 40q31 35 31 83q0 53 -40 89q-34 31 -83 31z" />
    <glyph glyph-name="cent" unicode="&#xa2;" 
d="M604 246q-132 16 -132 141q0 143 122 274q73 78 179 98l31 95q10 31 32 31t22 -17q0 -5 -4 -16l-29 -88q107 -6 107 -40q0 -6 -2 -14l-15 -49q-6 -20 -15 -20q-5 0 -16 12q-32 37 -79 50l-124 -376q75 28 170 101q12 9 20 9q15 0 15 -15q0 -35 -113 -111
q-55 -38 -116 -59l-60 -181q-7 -20 -30 -20q-21 0 -21 15q0 2 6 23zM754 703q-67 -30 -110 -112q-53 -100 -53 -196q0 -55 40 -68z" />
    <glyph glyph-name="sterling" unicode="&#xa3;" 
d="M669 429h-189q-21 0 -21 8q0 6 6 14l20 28q9 13 31 13h165q47 174 112 270q125 185 225 185q38 0 62.5 -35t24.5 -91t-38 -163q-8 -22 -26 -26l-47 -11q-8 -2 -13 -2q-14 0 -14 13q0 10 31 67q60 111 60 180q0 32 -27 32q-35 0 -81.5 -47t-79.5 -116q-48 -98 -71 -256
h129q20 0 20 -11q0 -4 -5 -13l-14 -24q-8 -15 -29 -15h-110q-24 -108 -62 -175q-28 -50 -88 -117q119 -50 238 -70q23 -4 23 -15q0 -6 -8 -16l-31 -38q-11 -13 -24 -13q-56 0 -251 95q-153 -95 -260 -95q-61 0 -99 28q-38 29 -38 73q0 55 57 94q50 34 124 34q65 0 191 -43
q73 83 107 258zM513 116q-106 42 -160 42q-46 0 -80 -19q-36 -22 -36 -54q0 -29 30 -48q24 -16 57 -16q68 0 189 95z" />
    <glyph glyph-name="section" unicode="&#xa7;" 
d="M658 644q-14 61 -14 87q0 107 107 180q72 50 160 50q147 0 147 -39v-5l-14 -58q-2 -12 -10 -12q-4 0 -79 34q-36 16 -86 16q-53 0 -91 -24q-66 -42 -66 -113q0 -54 117 -77q153 -31 153 -159q0 -91 -66 -148q-45 -39 -140 -88q15 -69 15 -89q0 -102 -112 -177
q-76 -50 -182 -50q-105 0 -195 38q-18 8 -18 18q0 6 5 17l21 44q7 16 17 16q8 0 21 -9q87 -60 199 -60q62 0 115 33q61 37 61 104q0 61 -116 88q-84 20 -116 50q-35 33 -35 92q0 154 202 241zM708 587q-184 -41 -184 -128q0 -38 46 -59q11 -5 77 -24q64 -19 104 -40
q163 60 163 148q0 36 -35 56q-16 10 -88 24q-32 7 -83 23z" />
    <glyph glyph-name="bullet" unicode="&#x2022;" horiz-adv-x="1024" 
d="M519 1106q158 0 270 -123q95 -105 95 -248q0 -166 -123 -277q-106 -95 -248 -95q-166 0 -277 123q-95 105 -95 251q0 162 123 273q105 96 255 96z" />
    <glyph glyph-name="paragraph" unicode="&#xb6;" 
d="M675 -326v1009q-73 36 -115 110q-71 126 -71 290q0 165 75 286q64 105 166 136q67 21 175 21h49v-70h-69v-1782h-70v1782h-70v-1782h-70z" />
    <glyph glyph-name="germandbls" unicode="&#xdf;" horiz-adv-x="721" 
d="M216 -472l-63 -29q-20 -9 -28 -9q-11 0 -11 10q0 3 6 24l404 1285q30 97 103 273.5t116 257.5q111 209 190 209q62 0 62 -138q0 -136 -41 -274q-34 -117 -156 -349q-61 -117 -61 -166q0 -34 68 -165q72 -138 72 -251q0 -90 -61 -151q-70 -70 -176 -70q-59 0 -100 22
q-49 27 -49 67q0 21 19 36.5t44 15.5q41 0 71 -39q26 -34 51 -34q28 0 55 30q41 46 41 120q0 75 -49 220q-50 151 -50 198q0 60 105 281q176 371 176 537q0 42 -24 42q-27 0 -96 -163q-31 -71 -104 -270.5t-95 -270.5l-365 -1190q-12 -38 -54 -59z" />
    <glyph glyph-name="registered" unicode="&#xae;" horiz-adv-x="1570" 
d="M1190 1399q287 0 498 -210q210 -208 210 -506q0 -297 -210 -507t-507 -210t-507 210t-210 505q0 304 210 508q215 210 516 210zM1173 1328q-259 0 -449 -189q-189 -189 -189 -456t189 -457q189 -189 457 -189t457 189t189 455q0 274 -189 458q-194 189 -465 189zM970 639
q49 192 128 345q103 201 243 201q87 0 146 -80q48 -66 48 -152q0 -183 -166 -289q-87 -56 -215 -75q-40 -6 -40 -15q0 -13 200 -157q141 -96 165 -112q24 -14 24 -23q0 -8 -12 -14l-35 -17q-11 -5 -15 -5q-13 1 -67 42q-43 38 -96 70q-161 117 -198 156q-36 38 -36 64
q0 31 68 49q173 44 254 150q84 109 84 223q0 142 -106 142q-129 0 -239 -265q-109 -263 -149 -572q-7 -59 -22 -59q-6 0 -16 5l-38 20q-15 7 -15 21q0 5 4 28q38 250 38 519q0 190 -8 254q-4 34 -4 50q0 17 14 23l34 16q8 3 13 3q17 0 20 -27q6 -76 6 -198q0 -143 -12 -321z
" />
    <glyph glyph-name="copyright" unicode="&#xa9;" horiz-adv-x="1570" 
d="M1190 1399q287 0 498 -210q210 -208 210 -506q0 -297 -210 -507t-507 -210t-507 210t-210 505q0 304 210 508q215 210 516 210zM1173 1328q-259 0 -449 -189q-189 -189 -189 -456t189 -457q189 -189 457 -189t457 189t189 455q0 274 -189 458q-194 189 -465 189z
M1176 857v35q0 12 7 18q6 6 55 27q75 32 126 90q23 27 23 51q0 50 -89 50q-71 0 -149.5 -45t-132.5 -117q-131 -172 -131 -356q0 -121 57 -205q88 -130 243 -130q74 0 155 36q52 24 75 42q23 17 32 17q7 0 16 -9t9 -16q0 -16 -95 -64q-94 -49 -209 -49q-170 0 -266 115
q-94 113 -94 278q0 162 105 316q92 136 228 194q83 36 159 36q60 0 101 -34q42 -36 42 -86q0 -83 -110 -160q-86 -61 -136 -61q-21 0 -21 27z" />
    <glyph glyph-name="trademark" unicode="&#x2122;" horiz-adv-x="1252" 
d="M607 1141l14 223h479l10 -223h-40q-30 96 -53 133q-31 43 -103 50v-414q0 -66 18 -82q15 -12 71 -18v-40h-285v40q51 4 67 16q22 18 22 84v414q-70 -9 -107 -61q-26 -41 -54 -122h-39zM1142 770v40q42 9 61 20q28 18 28 76v339q0 55 -16 66q-13 7 -73 13v40h224l116 -392
l130 392h224v-40q-53 -4 -69 -15q-18 -13 -19 -71v-329q1 -59 9 -70q18 -22 79 -29v-40h-284v40q51 8 67 18q22 17 22 81v403l-180 -542h-25l-158 525v-386q1 -59 21 -75q18 -14 67 -24v-40h-224z" />
    <glyph glyph-name="acute" unicode="&#xb4;" 
d="M684 602l161 150q18 16 46 16h69q22 0 22 -6q0 -5 -8 -10l-209 -150q-15 -11 -36 -14l-44 -6l-6 -1q-6 0 -6 6q0 5 11 15z" />
    <glyph glyph-name="dieresis" unicode="&#xa8;" 
d="M641 718q29 0 49 -23q18 -19 18 -45q0 -30 -23 -50q-19 -18 -45 -18q-30 0 -50 23q-18 19 -18 46t20.5 47t48.5 20zM843 718q29 0 49 -23q18 -19 18 -45q0 -30 -23 -50q-19 -18 -45 -18q-30 0 -50 23q-18 19 -18 46t20 47t49 20z" />
    <glyph glyph-name="notequal" unicode="&#x2260;" horiz-adv-x="2048" 
d="M1202 838l315 368h165l-315 -368h315v-134h-430l-243 -284h673v-134h-788l-321 -376h-165l321 376h-321v134h437l242 284h-679v134h794z" />
    <glyph glyph-name="AE" unicode="&#xc6;" horiz-adv-x="1896" 
d="M1495 645q130 111 339 224q38 21 38 39q0 23 -33 58q-66 70 -66 141q0 129 142 260q170 156 327 156q56 0 84 -49q16 -28 16 -61q0 -117 -119 -288q-34 -50 -44 -50q-6 0 -20 14l-26 29q-10 11 -10 18t43 54q43 48 80 119t37 107q0 22 -18 39.5t-42 17.5q-77 0 -196 -133
q-158 -177 -158 -277q0 -27 14 -60l37 -92q11 -26 11 -46q0 -50 -93 -101q-161 -89 -295 -212q-185 -170 -185 -349q0 -84 62 -146q55 -54 133 -54q169 0 413 173q11 7 18 7q12 0 12 -16q0 -4 -1 -6l-24 -81q-7 -24 -65 -50q-176 -77 -321 -77q-136 0 -219 97q-21 24 -50 69
l-39 -119h-61q-67 255 -191 487l-73 -124q-112 -191 -194 -277q-128 -133 -301 -133q-122 0 -333 82q-46 17 -46 37q0 9 12 24l25 31q12 16 27 16q8 0 61 -23q167 -74 277 -74q146 0 227 82q80 80 179 257l376 680q133 240 243 376q66 82 127 82q55 0 55 -73
q0 -115 -51 -299zM1082 466q80 -138 163 -359l105 334q-29 -1 -41 -1q-89 0 -227 26zM1044 525q123 -46 318 -44l155 567q86 298 86 354q0 28 -19 28q-18 0 -46 -38q-33 -44 -154 -252l-52 -89z" />
    <glyph glyph-name="Oslash" unicode="&#xd8;" horiz-adv-x="1403" 
d="M444 207q-66 124 -66 302q0 219 129 463q138 261 356 416q191 135 388 135q167 0 272 -110q43 -44 86 -110l220 206q20 18 30 18q6 0 13 -6l18 -15q7 -6 7 -11q0 -9 -17 -25l-240 -227q62 -147 62 -294q0 -234 -125 -470q-131 -247 -345 -395q-188 -131 -377 -131
q-224 0 -375 196l-196 -178q-22 -20 -33 -20q-8 0 -16 7l-16 16q-6 6 -6 10q0 8 8 15zM532 198q96 -195 296 -195q188 0 370 145q203 162 318 444q90 222 90 435q0 78 -23 161zM1559 1257q-93 216 -304 216q-187 0 -369 -145q-202 -162 -321 -443q-91 -217 -91 -412
q0 -103 31 -209z" />
    <glyph glyph-name="infinity" unicode="&#x221e;" horiz-adv-x="2048" 
d="M1097 421q-151 -266 -399 -266q-184 0 -303 123q-110 113 -110 294q0 169 111 290q118 129 293 129q178 0 290 -117q48 -51 101 -149q59 82 98 123q94 99 232 99q156 0 258 -110q95 -104 95 -260q0 -168 -113 -279q-101 -99 -236 -99q-214 0 -317 222zM990 617
q-41 81 -96 126q-100 82 -219 82q-107 0 -192 -69q-86 -70 -86 -193q0 -95 60 -164q69 -81 171 -81q152 0 265 139q18 23 58.5 89.5t38.5 70.5zM1168 567q31 -79 90 -130q82 -71 184 -71q85 0 143 54q67 63 67 153t-60 147q-62 59 -157 59q-87 0 -162 -62q-52 -42 -81 -99
q-25 -49 -24 -51z" />
    <glyph glyph-name="plusminus" unicode="&#xb1;" horiz-adv-x="1062" 
d="M490 28h504q28 0 29 -16v-24q-1 -23 -29 -22h-504q-30 0 -30 21v24q0 16 30 17zM711 342v194q0 28 19 29h25q18 -2 18 -29v-194h222q29 1 29 -16v-24q0 -23 -29 -22h-222v-203q-1 -20 -21 -20h-21q-20 1 -20 29v194h-221q-30 0 -30 21v23q1 18 30 18h221z" />
    <glyph glyph-name="lessequal" unicode="&#x2264;" horiz-adv-x="2048" 
d="M1690 1223v-140l-1078 -398l1078 -303v-140l-1271 377v131zM1690 138v-137h-1271v137h1271z" />
    <glyph glyph-name="greaterequal" unicode="&#x2265;" horiz-adv-x="2048" 
d="M419 1223l1271 -473v-131l-1271 -377v140l1078 303l-1078 398v140zM1690 138v-137h-1271v137h1271z" />
    <glyph glyph-name="yen" unicode="&#xa5;" 
d="M671 -118h-177q-36 0 -36 11q0 5 5 11l18 23q16 19 54 19h168q83 147 157 311q43 99 178 430q-240 -340 -381 -496q-254 -282 -385 -282q-33 0 -55.5 27.5t-22.5 69.5q0 84 67 241l233 550q12 26 26 59q21 46 21 72q0 24 -19 24q-41 0 -146 -118q-16 -19 -23 -19
q-5 0 -12 6l-24 17q-6 5 -6 10q0 12 63 66q85 74 146 74q34 0 58 -28q22 -27 22 -69q0 -83 -42 -186l-234 -570q-31 -77 -31 -107t29 -30q101 0 431 396q222 265 366 522q11 20 36 24l50 7h4q20 0 20 -17q0 -28 -196 -506q-151 -366 -214 -478h196q35 0 35 -15q0 -6 -4 -13
l-11 -18q-12 -18 -68 -18h-186q-23 -31 -63 -80h210q40 0 40 -14q0 -6 -4 -13l-10 -20q-6 -12 -20 -16q-5 -1 -41 -1h-225q-128 -92 -209 -125q-154 -63 -351 -63q-149 0 -149 25q0 5 3 12l15 38q4 11 14 11q9 0 25 -7q63 -28 184 -28q161 0 270 65q39 23 93 72h-171
q-26 0 -26 9q0 4 4 8l27 30q18 18 49 17h161q33 35 64 80z" />
    <glyph glyph-name="mu" unicode="&#xb5;" horiz-adv-x="1138" 
d="M305 848h177l-120 -576q-8 -37 -8 -76q0 -48 24 -80q28 -37 68 -37q94 0 172 128q44 73 62 155l102 486h162l-107 -538q-11 -53 -11 -104q0 -108 56 -108q42 0 82 75q8 14 35 76q6 14 14 29l68 -27q-92 -285 -226 -285q-79 0 -108 103q-13 45 -18 157q-41 -91 -120 -170
q-87 -87 -181 -87q-100 0 -149 106l-50 -368q-9 -68 -23 -93q-23 -44 -73 -44q-76 0 -76 71q0 23 9 66z" />
    <glyph glyph-name="partialdiff" unicode="&#x2202;" horiz-adv-x="1024" 
d="M744 782q6 110 6 138q0 398 -154 398q-65 0 -110 -107q-39 -91 -107 -91q-38 0 -69 24t-31 62q0 71 66 135q83 80 200 80q141 0 241 -119q142 -171 142 -492q0 -375 -153 -621q-68 -111 -186 -175q-84 -46 -174 -46q-156 0 -252 123q-75 97 -75 253q0 172 89 306
q68 102 170.5 162t209.5 60q95 0 187 -90zM523 787q-67 0 -122 -63q-140 -160 -140 -414q0 -125 46 -198q41 -65 114 -65q68 0 118 53q66 70 109 195.5t43 249.5q0 104 -47 174q-46 68 -121 68z" />
    <glyph glyph-name="summation" unicode="&#x2211;" horiz-adv-x="2048" 
d="M441 1386h1121l42 -367l-71 -24l-15 33q-51 119 -83 158q-85 110 -285 115h-430l372 -733l-461 -760h551q131 -1 224 79q99 89 139 197l71 -28l-122 -454h-1076l501 837z" />
    <glyph glyph-name="glyph154" horiz-adv-x="512" 
 />
    <glyph glyph-name="pi" unicode="&#x3c0;" horiz-adv-x="1252" 
d="M177 556l-65 48l48 75q78 124 162 163q65 29 186 29h613q74 1 102 13l-36 -167h-307q-38 -170 -38 -294q0 -161 58 -323q14 -38 14 -56q0 -78 -91 -78q-133 0 -133 217q0 197 98 534h-151l-120 -584l-6 -30q-24 -138 -122 -138q-83 0 -83 63q0 44 56 188l191 501h-57
q-105 2 -173 -32q-62 -32 -146 -129z" />
    <glyph glyph-name="integral" unicode="&#x222b;" horiz-adv-x="2048" 
d="M1045 1083l64 -356q45 -255 45 -620q0 -565 -234 -565q-76 0 -126 51q-39 39 -39 89q0 53 34 84q27 25 63 25t59 -26q21 -24 21 -60q0 -14 -3 -29q-4 -16 -4 -23q0 -33 35 -33q65 0 65 123q0 38 -15 154l-5 45l-79 582q-36 265 -36 528q0 513 245 513q70 0 114 -47
q38 -41 38 -97q0 -105 -91 -105q-83 0 -83 69q0 14 6 40q4 18 4 32q0 24 -22 24q-25 0 -44 -27q-35 -49 -35 -143q0 -99 23 -228z" />
    <glyph glyph-name="ordfeminine" unicode="&#xaa;" horiz-adv-x="645" 
d="M695 667l-49 -63q-122 -154 -213 -154q-43 0 -72 34q-27 32 -27 81q0 84 69 192q124 194 298 194q66 0 66 -21q0 -8 -4 -17l-17 -34q-44 30 -78 30q-81 0 -160 -142q-69 -125 -69 -197q0 -52 46 -52q61 0 155 134q94 132 156 263q10 20 32 21h36q23 0 23 -14q0 -6 -5 -19
l-99 -282q-19 -53 -19 -75q0 -28 27 -28q34 0 112 80q19 19 26 19q10 0 10 -10q0 -15 -60 -76q-78 -81 -136 -81q-76 0 -76 83q0 32 13 78z" />
    <glyph glyph-name="ordmasculine" unicode="&#xba;" horiz-adv-x="645" 
d="M748 964q65 0 107 -41q44 -42 44 -105q0 -126 -105 -239q-106 -115 -234 -115q-67 0 -111 41q-46 43 -46 110q0 120 107 232q113 117 238 117zM726 922q-59 0 -123 -90q-95 -134 -95 -256q0 -70 55 -70q90 0 157 122q74 136 74 223q0 71 -68 71z" />
    <glyph glyph-name="Omega" unicode="&#x2126;" horiz-adv-x="1252" 
d="M1109 425l79 -15l-79 -410h-409q75 169 145 392q118 371 118 581q0 172 -112 281q-85 84 -198 84q-114 0 -199 -84q-112 -110 -112 -280q0 -225 134 -633q66 -200 130 -341h-410l-79 410l79 15l22 -86q22 -81 58 -111q28 -22 87 -22h87l-232 404q-115 201 -115 344
q0 162 110 289q73 85 190.5 133.5t249.5 48.5t249.5 -48.5t190.5 -133.5q110 -127 110 -288q0 -143 -116 -345l-232 -404h87q60 0 87 22q37 31 58 111z" />
    <glyph glyph-name="ae" unicode="&#xe6;" horiz-adv-x="872" 
d="M572 133q-125 -148 -210 -148q-43 0 -72 34q-27 32 -27 80q0 85 69 192q124 194 298 194q66 0 66 -23q0 -7 -4 -15l-17 -34q-44 30 -78 30q-81 0 -160 -141q-69 -125 -69 -197q0 -52 45 -52q56 0 138 108q61 81 167 276q18 32 39 33h36q21 0 21 -10q0 -4 -11 -31
q61 56 118 56q51 0 82 -28q30 -28 30 -71q0 -91 -115 -168q-66 -43 -238 -117q3 -27 16 -44q24 -30 58 -30q54 0 131 49q19 12 98 83q10 9 18 9q12 0 12 -13q0 -29 -95 -95q-106 -75 -201 -75q-55 0 -92 25q-54 37 -54 101q0 10 1 22zM681 143q121 53 185 108q62 54 62 134
q0 58 -41 58q-46 0 -106 -96q-63 -101 -100 -204z" />
    <glyph glyph-name="oslash" unicode="&#xf8;" horiz-adv-x="569" 
d="M731 404q15 -31 15 -65q0 -126 -104 -239q-106 -115 -232 -115q-74 0 -122 53l-64 -49q-6 -5 -9 -5q-4 0 -11 8l-4 5q-7 9 -7 10q0 3 9 11l65 54q-12 33 -12 60q0 118 107 233q112 120 238 120q65 0 110 -49l55 41l4 3q4 3 6 3q3 0 9 -7l7 -7q5 -6 5 -8q0 -4 -8 -10z
M362 95q-2 -13 -2 -21q0 -47 52 -47q88 0 159 126q44 77 69 176zM642 379q-9 64 -69 64q-77 0 -159 -150q-37 -69 -52 -145z" />
    <glyph glyph-name="questiondown" unicode="&#xbf;" horiz-adv-x="607" 
d="M591 -231l23 -40q13 -24 13 -30q0 -15 -75 -87q-126 -122 -258 -122q-76 0 -136 53q-53 47 -53 124q0 79 60 151q25 31 146 133q132 110 231 268q21 37 33 37q16 0 16 -12q0 -16 -30.5 -76.5t-64.5 -113.5q-78 -119 -271 -305q-65 -63 -65 -114q0 -32 21 -56
q29 -34 83 -34q131 0 255 191q34 53 50 53q11 0 22 -20zM634 485q36 0 61 -28q21 -24 21 -56q0 -37 -27 -62q-24 -21 -56 -21q-38 0 -63 27q-21 24 -21 57q0 36 28 61q23 22 57 22z" />
    <glyph glyph-name="exclamdown" unicode="&#xa1;" horiz-adv-x="379" 
d="M144 -474l257 706q8 24 20 24q30 0 30 -26q0 -5 -4 -21l-164 -653q-8 -36 -38 -44l-77 -20q-9 -2 -16 -2q-15 0 -15 11q0 7 7 25zM458 485q36 0 61 -28q21 -24 21 -56q0 -37 -27 -62q-24 -21 -57 -21q-37 0 -62 27q-21 24 -21 57q0 36 28 61q23 22 57 22z" />
    <glyph glyph-name="logicalnot" unicode="&#xac;" horiz-adv-x="1062" 
d="M1018 377h-471q-28 0 -29 17v32q1 13 30 13h502q28 0 30 -13v-286q1 -14 -14 -14h-33q-15 1 -15 35v216z" />
    <glyph glyph-name="radical" unicode="&#x221a;" horiz-adv-x="1479" 
d="M-177 439l282 194l521 -763l512 1670h358v-60h-300l-562 -1834h-39l-574 839l-157 -107z" />
    <glyph glyph-name="florin" unicode="&#x192;" 
d="M487 227q-74 11 -74 22q0 4 12 13q64 49 90 82l30 102q150 511 217 680q90 228 189 352q56 71 107 71q62 0 62 -138q0 -260 -149 -543q-98 -187 -325 -474l-36 -117q97 24 182 80q29 21 37 21q12 0 12 -12q0 -23 -78 -64q-79 -41 -162 -62q-96 -336 -179 -589
q-15 -44 -19 -57q-15 -49 -43 -63l-82 -33q-18 -8 -25 -8q-12 0 -12 14q0 9 20 57q16 40 106 297q98 303 120 369zM689 543q140 179 258 458q132 314 132 471q0 35 -13 35q-38 0 -137.5 -253t-239.5 -711z" />
    <glyph glyph-name="approxequal" unicode="&#x2248;" horiz-adv-x="2048" 
d="M1644 509l43 -27q-142 -248 -322 -248q-112 0 -338 68q-221 66 -318 66q-83 0 -152 -44q-29 -19 -105 -79l-36 31q157 242 370 242q71 0 249 -53q269 -81 354 -81q150 0 255 125zM1644 865l43 -28q-141 -247 -321 -247q-113 0 -339 68q-221 66 -318 66q-83 0 -152 -45
q-26 -16 -105 -78l-36 30q157 243 371 243q69 0 248 -54q270 -80 354 -80q149 0 255 125z" />
    <glyph glyph-name="Delta" unicode="&#x2206;" horiz-adv-x="1365" 
d="M751 1392l572 -1392h-1285zM675 1074l-448 -882h799z" />
    <glyph glyph-name="guillemotleft" unicode="&#xab;" horiz-adv-x="569" 
d="M845 531q19 0 19 -14q0 -11 -18 -23q-249 -172 -249 -410q0 -72 76 -117q16 -10 16 -18q0 -17 -30 -17q-53 0 -99 39q-66 55 -66 148q0 180 174 314q47 36 103 67t74 31zM624 531q19 0 19 -14q0 -11 -18 -23q-249 -170 -249 -410q0 -72 76 -117q16 -10 16 -18
q0 -17 -30 -17q-53 0 -99 39q-66 55 -66 148q0 180 174 314q46 36 102.5 67t74.5 31z" />
    <glyph glyph-name="guillemotright" unicode="&#xbb;" horiz-adv-x="569" 
d="M363 531q50 0 97 -39q66 -55 66 -147q0 -181 -175 -315q-127 -98 -177 -98q-18 0 -18 15q0 10 18 22q249 170 249 410q0 72 -76 117q-16 10 -16 18q0 17 32 17zM584 531q50 0 98 -39q66 -55 66 -147q0 -181 -175 -315q-127 -98 -177 -98q-18 0 -18 15q0 10 18 22
q249 171 249 410q0 72 -77 117q-16 10 -16 18q0 17 32 17z" />
    <glyph glyph-name="ellipsis" unicode="&#x2026;" horiz-adv-x="1062" 
d="M376 152q35 0 60 -28q22 -23 22 -55q0 -38 -28 -62q-23 -22 -56 -22q-37 0 -62 28q-21 23 -21 56q0 36 28 62q23 21 57 21zM725 152q35 0 61 -28q21 -23 21 -55q0 -38 -28 -62q-24 -22 -55 -22q-38 0 -62 28q-22 23 -22 56q0 36 28 62q23 21 57 21zM1074 152q35 0 60 -28
q22 -23 22 -55q0 -38 -28 -62q-23 -22 -56 -22q-37 0 -62 28q-21 23 -21 56q0 36 28 62q23 21 57 21z" />
    <glyph glyph-name="glyph172" 
 />
    <glyph glyph-name="Agrave" unicode="&#xc0;" horiz-adv-x="1820" 
d="M1414 465q-194 -230 -351 -339q-249 -173 -581 -173q-169 0 -268 47q-17 8 -17 19q0 6 4 12l35 41q9 10 21 10q8 0 68 -31q93 -47 235 -47q249 0 439 140q229 168 498 547q63 89 418 626q158 238 208 238q54 0 54 -117q0 -182 -168 -710l-80 -250q21 1 27 1q46 4 55 4
q19 0 19 -16q0 -22 -111 -24l-155 -443h-74q-38 113 -121 250q-83 135 -155 215zM1812 441q-41 -1 -62 -1q-127 0 -274 18q159 -198 224 -370zM1443 509q126 -28 300 -28q28 0 80 1l147 477q99 331 112 384q15 56 15 97q0 21 -11 21q-16 0 -275 -405q-143 -224 -368 -547z
M2152 1635l-43 4q-25 3 -41 20l-207 244q-11 13 -11 19q0 8 25 8h73q32 0 48 -24l157 -247q9 -15 9 -18q0 -7 -10 -6z" />
    <glyph glyph-name="Atilde" unicode="&#xc3;" horiz-adv-x="1820" 
d="M1414 465q-194 -230 -351 -339q-249 -173 -581 -173q-169 0 -268 47q-17 8 -17 19q0 6 4 12l35 41q9 10 21 10q8 0 68 -31q93 -47 235 -47q249 0 439 140q229 168 498 547q63 89 418 626q158 238 208 238q54 0 54 -117q0 -182 -168 -710l-80 -250q21 1 27 1q46 4 55 4
q19 0 19 -16q0 -22 -111 -24l-155 -443h-74q-38 113 -121 250q-83 135 -155 215zM1812 441q-41 -1 -62 -1q-127 0 -274 18q159 -198 224 -370zM1443 509q126 -28 300 -28q28 0 80 1l147 477q99 331 112 384q15 56 15 97q0 21 -11 21q-16 0 -275 -405q-143 -224 -368 -547z
M1977 1832q68 0 169 -55q98 -53 145 -53q83 0 126 82q18 34 32 34q12 0 12 -12q0 -44 -59 -112q-69 -81 -143 -81q-54 0 -246 85q-52 23 -103 23q-70 0 -109 -76q-20 -39 -33 -39t-12 12q0 6 51 101q21 39 69.5 65t100.5 26z" />
    <glyph glyph-name="Otilde" unicode="&#xd5;" horiz-adv-x="1403" 
d="M1245 1523q190 0 318 -152q140 -167 140 -420q0 -237 -126 -472q-130 -246 -344 -395q-188 -131 -376 -131q-201 0 -334 146q-144 156 -144 403q0 228 129 470q142 265 355 416q190 135 382 135zM1247 1473q-181 0 -361 -144q-199 -159 -320 -441q-91 -214 -91 -416
q0 -207 107 -347q93 -122 248 -122q170 0 344 125q185 134 309 388q124 253 124 488q0 221 -112 358q-91 111 -248 111zM1195 1832q68 0 169 -55q98 -53 145 -53q83 0 126 82q18 34 32 34q12 0 12 -12q0 -44 -59 -112q-69 -81 -143 -81q-54 0 -246 85q-52 23 -103 23
q-70 0 -109 -76q-20 -39 -33 -39t-12 12q0 6 51 101q21 39 69.5 65t100.5 26z" />
    <glyph glyph-name="OE" unicode="&#x152;" horiz-adv-x="2048" 
d="M1246 251q-84 -96 -130 -141q-160 -157 -351 -157q-73 0 -145 35t-117 92q-111 142 -111 382q0 241 121 488q130 267 349 436q177 137 336 137q144 0 227 -124q111 -164 111 -410q0 -137 -48 -311q109 90 296 192q39 21 39 43q0 16 -34 53q-65 73 -65 139q0 131 137 262
q165 156 315 156q54 0 82 -49q15 -27 15 -60q0 -107 -107 -271q-45 -68 -57 -68q-5 0 -19 15l-25 29q-10 10 -10 16q0 9 38 51q46 52 83.5 122.5t37.5 106.5q0 23 -19 40.5t-43 17.5q-81 0 -204 -134q-165 -177 -165 -273q0 -31 22 -65l60 -92q17 -26 17 -48q0 -47 -93 -98
q-162 -88 -293 -211q-185 -172 -185 -349q0 -85 63 -146q56 -54 137 -54q168 0 418 174q10 7 18 7q12 0 12 -14q0 -5 -1 -9l-24 -81q-7 -22 -30 -33q-199 -94 -343 -94q-295 0 -315 298zM1184 1473q-156 0 -330 -169q-147 -143 -256 -410q-111 -271 -111 -490
q0 -180 82 -300q68 -101 174 -101q94 0 200.5 65.5t199.5 181.5q135 168 214 389q83 229 83 445q0 191 -80 300q-64 89 -176 89z" />
    <glyph glyph-name="oe" unicode="&#x153;" horiz-adv-x="872" 
d="M606 64q-94 -79 -194 -79q-70 0 -114 41q-46 43 -46 107q0 118 109 232q113 120 234 120q90 0 141 -100q109 100 211 100q53 0 84 -31q26 -27 26 -67q0 -98 -127 -176q-68 -42 -226 -110q3 -30 20 -49q23 -25 52 -25q56 0 133 49q19 13 98 83q10 9 18 9q12 0 12 -13
q0 -31 -117 -111q-86 -59 -179 -59q-97 0 -135 79zM574 443q-64 0 -133 -107q-85 -132 -85 -235q0 -74 58 -74q91 0 158 122q76 140 76 217t-74 77zM705 143q120 52 185 108q62 54 62 135q0 57 -40 57q-51 0 -122 -119q-49 -82 -85 -181z" />
    <glyph glyph-name="endash" unicode="&#x2013;" 
d="M415 226l9 36q6 18 30 18h370q26 0 26 -15v-3l-10 -36q-6 -23 -30 -23h-368q-27 0 -27 19v4z" />
    <glyph glyph-name="emdash" unicode="&#x2014;" horiz-adv-x="1062" 
d="M389 226l9 36q5 18 30 18h633q27 0 26 -18l-9 -36q-6 -23 -31 -23h-631q-27 0 -27 19v4z" />
    <glyph glyph-name="quotedblleft" unicode="&#x201c;" horiz-adv-x="569" 
d="M639 1347q88 -14 88 -79q0 -30 -21 -51.5t-52 -21.5q-79 0 -79 89q0 79 79 180q46 59 62 59q14 0 14 -13q0 -10 -18 -33q-45 -55 -73 -130zM889 1347q87 -14 87 -79q0 -30 -21 -51.5t-51 -21.5q-79 0 -79 89q0 79 79 180q46 59 62 59q14 0 14 -13q0 -10 -18 -33
q-45 -56 -73 -130z" />
    <glyph glyph-name="quotedblright" unicode="&#x201d;" horiz-adv-x="569" 
d="M666 1371q-87 14 -87 79q0 31 21 52t51 21q35 0 57 -25t22 -63q0 -82 -85 -188q-42 -52 -56 -52t-14 13q0 8 18 33q49 67 73 130zM916 1371q-88 14 -88 79q0 30 21 51.5t52 21.5q79 0 79 -89q0 -81 -85 -187q-42 -52 -56 -52t-14 13q0 8 18 33q46 63 73 130z" />
    <glyph glyph-name="quoteleft" unicode="&#x2018;" horiz-adv-x="341" 
d="M638 1347q88 -14 88 -79q0 -30 -21 -51.5t-52 -21.5q-79 0 -79 89q0 79 79 180q46 59 62 59q14 0 14 -13q0 -10 -18 -33q-45 -55 -73 -130z" />
    <glyph glyph-name="quoteright" unicode="&#x2019;" horiz-adv-x="341" 
d="M665 1371q-87 14 -87 79q0 31 21 52t51 21q35 0 57 -25t22 -63q0 -82 -85 -188q-42 -52 -56 -52t-14 13q0 8 18 33q49 67 73 130z" />
    <glyph glyph-name="divide" unicode="&#xf7;" horiz-adv-x="1062" 
d="M787 185q26 0 45.5 -19.5t19.5 -46.5q0 -28 -19.5 -47.5t-46.5 -19.5q-28 0 -47.5 19.5t-19.5 47.5t20 47t48 19zM787 510q27 0 46 -19.5t19 -46.5q0 -28 -19.5 -47.5t-46.5 -19.5q-28 0 -47.5 20t-19.5 47q0 28 20 47t48 19zM534 313h503q29 0 29 -16v-24
q-1 -23 -29 -22h-503q-30 0 -30 21v23q0 17 30 18z" />
    <glyph glyph-name="glyph185" horiz-adv-x="512" 
 />
    <glyph glyph-name="ydieresis" unicode="&#xff;" horiz-adv-x="607" 
d="M549 -27l98 334q-108 -173 -142 -216q-82 -104 -150 -104q-40 0 -63 36q-18 30 -18 72q0 45 23 128l48 168q18 64 45 75l49 16q9 3 15 3q15 0 15 -18q0 -8 -8 -31l-101 -318q-10 -32 -10 -56q0 -33 31 -33q40 0 115 105q90 128 170 282q26 49 37 55q4 1 25 5l24 5
q19 4 21 4q14 0 14 -13q0 -3 -8 -34l-105 -370l65 60q13 12 19 12q18 0 18 -20q0 -5 -14 -18l-96 -87l-77 -220q-107 -305 -247 -305q-74 0 -74 75q0 72 80 183q54 75 201 225zM517 -111q-19 -21 -86 -95q-123 -135 -123 -225q0 -37 30 -37q38 0 64 41q24 38 56 135z
M520 718q29 0 49 -23q18 -19 18 -45q0 -30 -23 -50q-19 -18 -45 -18q-30 0 -50 23q-18 19 -18 46t20.5 47t48.5 20zM722 718q29 0 49 -23q18 -19 18 -45q0 -30 -23 -50q-19 -18 -45 -18q-30 0 -50 23q-18 19 -18 46t20 47t49 20z" />
    <glyph glyph-name="Ydieresis" unicode="&#x178;" horiz-adv-x="1252" 
d="M1554 1101q-286 -526 -488 -796q-155 -207 -297 -299q-82 -53 -145 -53q-120 0 -120 146q0 149 96 470q39 129 175 543q98 299 98 337q0 24 -19 24q-34 0 -144 -154q-67 -95 -163 -297q-5 -11 -12 -11t-15 12l-30 50q-6 11 -6 16q0 11 50.5 95.5t89.5 140.5
q141 198 223 198q85 0 85 -129q0 -90 -32 -209q-9 -36 -82 -276q-218 -714 -218 -839q0 -67 49 -67q102 0 313 260q163 201 398 598q116 195 166 295q30 59 88 206q32 79 39 83q4 4 21 7l48 9q7 1 10 1q21 0 21 -16q0 -24 -100 -353.5t-207 -658.5q-124 -383 -226 -545
q-112 -176 -266 -260q-146 -79 -371 -79q-142 0 -142 23q0 3 5 16l19 45q7 15 15 15q5 0 14 -4q88 -45 229 -45q187 0 321 169q125 156 307 696q49 145 203 636zM1174 1817q38 0 66 -30q23 -26 23 -61q0 -41 -30 -68q-26 -23 -61 -23q-41 0 -68 30q-23 26 -23 62q0 39 30 67
q26 23 63 23zM1518 1817q39 0 67 -30q23 -26 23 -61q0 -41 -30 -68q-26 -23 -61 -23q-41 0 -68 30q-23 26 -23 62q0 39 30 67q26 23 62 23z" />
    <glyph glyph-name="fraction" unicode="&#x2215;" horiz-adv-x="190" 
d="M71 21l539 942q14 25 33 25q26 0 26 -28q0 -14 -13 -37l-528 -934q-13 -22 -36 -22q-28 0 -28 27q0 14 7 27z" />
    <glyph glyph-name="currency" unicode="&#xa4;" 
d="M321 768l50 51l106 -107q100 76 218 76q119 0 218 -76l106 107l50 -51l-106 -106q74 -103 74 -214q0 -122 -75 -219l107 -106l-49 -49l-107 106q-109 -76 -218 -76t-218 76l-107 -106l-48 49l106 106q-74 95 -74 219q0 114 74 214zM691 716q-115 0 -196 -90
q-69 -76 -69 -180q0 -120 89 -201q77 -69 181 -69q120 0 200 89q69 78 69 183q0 116 -90 198q-75 70 -184 70z" />
    <glyph glyph-name="guilsinglleft" unicode="&#x2039;" horiz-adv-x="379" 
d="M597 531q19 0 19 -14q0 -11 -18 -23q-249 -170 -249 -410q0 -72 76 -117q16 -10 16 -18q0 -17 -30 -17q-53 0 -99 39q-66 55 -66 148q0 180 174 314q46 36 102.5 67t74.5 31z" />
    <glyph glyph-name="guilsinglright" unicode="&#x203a;" horiz-adv-x="379" 
d="M363 531q50 0 97 -39q66 -55 66 -147q0 -181 -175 -315q-127 -98 -177 -98q-18 0 -18 15q0 10 18 22q249 170 249 410q0 72 -76 117q-16 10 -16 18q0 17 32 17z" />
    <glyph glyph-name="fi" unicode="&#xf001;" horiz-adv-x="796" 
d="M352 227q-74 11 -74 22q0 4 12 13q64 49 90 82l30 102q150 511 217 680q90 228 189 352q56 71 107 71q62 0 62 -138q0 -260 -149 -543q-98 -187 -325 -474l-36 -117q97 24 182 80q29 21 37 21q12 0 12 -12q0 -23 -78 -64q-79 -41 -162 -62q-96 -336 -179 -589
q-15 -44 -19 -57q-15 -49 -43 -63l-82 -33q-18 -8 -25 -8q-12 0 -12 14q0 9 20 57q16 40 106 297q98 303 120 369zM554 543q140 179 258 458q132 314 132 471q0 35 -13 35q-38 0 -137.5 -253t-239.5 -711zM841 466l51 14q20 5 21 5q15 0 15 -17q0 -7 -3 -18l-100 -304
q-15 -47 -15 -66q0 -27 21 -27q33 0 118 104q26 32 32 32q18 0 18 -17q0 -24 -103 -117q-77 -70 -125 -70q-69 0 -69 71q0 41 32 143l66 217q12 40 41 50zM963 782q33 0 55 -25q20 -22 20 -51q0 -34 -25 -57q-22 -19 -51 -19q-34 0 -57 25q-19 22 -19 52q0 33 25 56
q21 19 52 19z" />
    <glyph glyph-name="fl" unicode="&#xf002;" 
d="M352 227q-74 11 -74 22q0 4 12 13q64 49 90 82l30 102q150 511 217 680q90 228 189 352q56 71 107 71q62 0 62 -138q0 -260 -149 -543q-98 -187 -325 -474l-36 -117q97 24 182 80q29 21 37 21q12 0 12 -12q0 -23 -78 -64q-79 -41 -162 -62q-96 -336 -179 -589
q-15 -44 -19 -57q-15 -49 -43 -63l-82 -33q-18 -8 -25 -8q-12 0 -12 14q0 9 20 57q16 40 106 297q98 303 120 369zM554 543q140 179 258 458q132 314 132 471q0 35 -13 35q-38 0 -137.5 -253t-239.5 -711zM770 312l-36 -27q-9 -8 -17 -8q-14 0 -14 17q0 12 15 25l69 62
q161 574 289 848q149 320 232 320q27 0 45.5 -29.5t18.5 -73.5q0 -242 -173 -544q-82 -143 -255 -387l-94 -311q-22 -73 -22 -120q0 -31 28 -31q40 0 129 82q38 35 44 35q11 0 11 -12q0 -24 -90 -101q-83 -72 -144 -72q-84 0 -84 92q0 51 20 129zM968 601q138 194 241 418
q122 263 122 420q0 42 -22 42q-44 0 -160 -300q-54 -141 -181 -580z" />
    <glyph glyph-name="daggerdbl" unicode="&#x2021;" 
d="M632 503q32 34 39 52q4 13 8 56q-59 -1 -114 -25q-48 -21 -69 -21q-27 0 -47 22q-18 20 -18 52q0 70 64 70q23 0 67 -19q55 -23 117 -27q2 25 2 37q0 62 -29 130q-18 42 -18 66q0 21 19 42q21 23 52 23q32 0 53 -23q19 -21 19 -43q0 -23 -18 -65q-28 -68 -28 -135
q0 -11 1 -32q60 3 117 27q44 19 67 19q64 0 64 -70q0 -31 -18 -52q-20 -22 -46 -22q-21 0 -69 21q-51 22 -115 25q2 -42 8 -56q7 -15 39 -52q-7 -12 -9 -15q-36 -55 -36 -107q0 -51 22 -88q5 -8 23 -35q-8 -12 -11 -16q-29 -36 -33 -56q-2 -11 -3 -36q12 2 16 2q53 3 99 23
q46 21 69 21q27 0 46 -22q18 -20 18 -52q0 -70 -64 -70q-23 0 -67 19q-51 22 -117 27q-1 -21 -1 -32q0 -62 28 -134q18 -45 18 -64q0 -24 -19 -44q-22 -23 -53 -23t-52 23q-19 21 -19 45q0 17 18 63q29 73 29 129q0 12 -2 37q-12 -1 -16 -2q-53 -4 -101 -25q-43 -19 -66 -19
q-65 0 -65 70q0 32 18 52q20 22 46 22q22 0 70 -21q52 -22 114 -25q-1 40 -8 57q-7 15 -39 51q45 61 45 123q0 61 -45 122z" />
    <glyph glyph-name="periodcentered" unicode="&#x2219;" horiz-adv-x="417" 
d="M488 528q35 0 61 -27q21 -23 21 -56q0 -37 -27 -62q-24 -21 -56 -21q-38 0 -62 27q-21 24 -21 57q0 36 27 61q24 21 57 21z" />
    <glyph glyph-name="quotesinglbase" unicode="&#x201a;" horiz-adv-x="341" 
d="M381 -6q-87 14 -87 79q0 30 21 51.5t51 21.5q35 0 57 -25t22 -63q0 -82 -85 -188q-42 -52 -56 -52t-14 13q0 7 18 33q50 67 73 130z" />
    <glyph glyph-name="quotedblbase" unicode="&#x201e;" horiz-adv-x="569" 
d="M325 -6q-87 14 -87 79q0 30 21 51.5t51 21.5q35 0 57 -25t22 -63q0 -82 -85 -188q-42 -52 -56 -52t-14 13q0 7 18 33q50 67 73 130zM575 -6q-88 14 -88 79q0 30 21 51.5t52 21.5q79 0 79 -89q0 -81 -85 -187q-42 -52 -56 -52t-14 13q0 7 18 33q47 64 73 130z" />
    <glyph glyph-name="perthousand" unicode="&#x2030;" horiz-adv-x="1365" 
d="M946 864q-46 -12 -92 -12q-48 0 -96 13q20 -43 20 -81q0 -131 -87 -247q-72 -95 -162 -95q-58 0 -98 42q-44 47 -44 130q0 125 88 232q83 101 176 101q27 0 92 -31q38 -19 114 -19q80 0 126 34q22 16 37 16q31 0 31 -29q0 -15 -13 -37l-536 -859q-23 -37 -51 -37
q-30 0 -30 27q0 12 8 25zM640 902q-50 0 -105 -107q-73 -140 -73 -236q0 -72 61 -72q52 0 101 72q79 119 79 266q0 77 -63 77zM978 490q53 0 93 -44q42 -46 42 -121q0 -130 -87 -245q-71 -95 -161 -95q-59 0 -99 43q-44 47 -44 129q0 127 88 232q86 101 168 101zM975 445
q-50 0 -105 -107q-73 -141 -73 -237q0 -71 61 -71q52 0 101 72q79 119 79 266q0 77 -63 77zM1382 489q53 0 93 -44q42 -46 42 -120q0 -130 -87 -246q-71 -94 -161 -94q-59 0 -99 42q-44 47 -44 130q0 127 88 231q85 101 168 101zM1379 444q-50 0 -105 -106
q-73 -140 -73 -237q0 -71 61 -71q52 0 101 72q79 119 79 265q0 77 -63 77z" />
    <glyph glyph-name="Acircumflex" unicode="&#xc2;" horiz-adv-x="1820" 
d="M1414 465q-194 -230 -351 -339q-249 -173 -581 -173q-169 0 -268 47q-17 8 -17 19q0 6 4 12l35 41q9 10 21 10q8 0 68 -31q93 -47 235 -47q249 0 439 140q229 168 498 547q63 89 418 626q158 238 208 238q54 0 54 -117q0 -182 -168 -710l-80 -250q21 1 27 1q46 4 55 4
q19 0 19 -16q0 -22 -111 -24l-155 -443h-74q-38 113 -121 250q-83 135 -155 215zM1812 441q-41 -1 -62 -1q-127 0 -274 18q159 -198 224 -370zM1443 509q126 -28 300 -28q28 0 80 1l147 477q99 331 112 384q15 56 15 97q0 21 -11 21q-16 0 -275 -405q-143 -224 -368 -547z
M2166 1823q-299 -189 -443 -189q-23 0 -23 15q0 18 35 31q205 79 387 247q16 14 37 14h42q24 -1 37 -34q45 -147 123 -230q20 -16 20 -24q0 -14 -16 -14q-30 0 -91 63q-24 24 -108 121z" />
    <glyph glyph-name="Ecircumflex" unicode="&#xca;" horiz-adv-x="1176" 
d="M1302 175l-17 -65q-7 -31 -43 -44q-299 -113 -534 -113q-221 0 -329 87q-98 80 -98 207q0 165 166 353q118 134 294 223q121 62 121 75q0 9 -33 45q-73 78 -73 141q0 168 265 321q205 118 409 118q93 0 143 -32q58 -37 58 -96q0 -84 -117 -282q-34 -58 -44 -58
q-8 0 -17 14l-26 43q-12 20 -12 27q0 9 10 23q110 163 110 236q0 35 -35 57q-29 18 -68 18q-88 0 -194.5 -37.5t-185.5 -96.5q-89 -67 -146 -152q-54 -80 -54 -142q0 -38 37 -112q32 -64 32 -94q0 -35 -38 -64q-16 -12 -110 -67q-187 -110 -276 -221q-120 -150 -120 -290
q0 -84 65 -140q61 -54 177 -54q166 0 433 102q159 60 225 97q11 6 18 6q11 0 11 -11q0 -4 -4 -22zM1530 1823q-299 -189 -443 -189q-23 0 -23 15q0 18 35 31q205 79 387 247q16 14 37 14h42q24 -1 37 -34q45 -147 123 -230q20 -16 20 -24q0 -14 -16 -14q-30 0 -91 63
q-24 24 -108 121z" />
    <glyph glyph-name="Aacute" unicode="&#xc1;" horiz-adv-x="1820" 
d="M1414 465q-194 -230 -351 -339q-249 -173 -581 -173q-169 0 -268 47q-17 8 -17 19q0 6 4 12l35 41q9 10 21 10q8 0 68 -31q93 -47 235 -47q249 0 439 140q229 168 498 547q63 89 418 626q158 238 208 238q54 0 54 -117q0 -182 -168 -710l-80 -250q21 1 27 1q46 4 55 4
q19 0 19 -16q0 -22 -111 -24l-155 -443h-74q-38 113 -121 250q-83 135 -155 215zM1812 441q-41 -1 -62 -1q-127 0 -274 18q159 -198 224 -370zM1443 509q126 -28 300 -28q28 0 80 1l147 477q99 331 112 384q15 56 15 97q0 21 -11 21q-16 0 -275 -405q-143 -224 -368 -547z
M2388 1903l-207 -244q-14 -17 -27 -21h-43l-17 -3q-7 0 -7 6q0 3 9 18l158 247q16 24 48 24h73q24 0 24 -8q0 -6 -11 -19z" />
    <glyph glyph-name="Edieresis" unicode="&#xcb;" horiz-adv-x="1176" 
d="M1302 175l-17 -65q-7 -31 -43 -44q-299 -113 -534 -113q-221 0 -329 87q-98 80 -98 207q0 165 166 353q118 134 294 223q121 62 121 75q0 9 -33 45q-73 78 -73 141q0 168 265 321q205 118 409 118q93 0 143 -32q58 -37 58 -96q0 -84 -117 -282q-34 -58 -44 -58
q-8 0 -17 14l-26 43q-12 20 -12 27q0 9 10 23q110 163 110 236q0 35 -35 57q-29 18 -68 18q-88 0 -194.5 -37.5t-185.5 -96.5q-89 -67 -146 -152q-54 -80 -54 -142q0 -38 37 -112q32 -64 32 -94q0 -35 -38 -64q-16 -12 -110 -67q-187 -110 -276 -221q-120 -150 -120 -290
q0 -84 65 -140q61 -54 177 -54q166 0 433 102q159 60 225 97q11 6 18 6q11 0 11 -11q0 -4 -4 -22zM1273 1817q38 0 66 -30q23 -26 23 -61q0 -41 -30 -68q-26 -23 -61 -23q-41 0 -68 30q-23 26 -23 62q0 39 30 67q26 23 63 23zM1617 1817q39 0 67 -30q23 -26 23 -61
q0 -41 -30 -68q-26 -23 -61 -23q-41 0 -68 30q-23 26 -23 62q0 39 30 67q26 23 62 23z" />
    <glyph glyph-name="Egrave" unicode="&#xc8;" horiz-adv-x="1176" 
d="M1302 175l-17 -65q-7 -31 -43 -44q-299 -113 -534 -113q-221 0 -329 87q-98 80 -98 207q0 165 166 353q118 134 294 223q121 62 121 75q0 9 -33 45q-73 78 -73 141q0 168 265 321q205 118 409 118q93 0 143 -32q58 -37 58 -96q0 -84 -117 -282q-34 -58 -44 -58
q-8 0 -17 14l-26 43q-12 20 -12 27q0 9 10 23q110 163 110 236q0 35 -35 57q-29 18 -68 18q-88 0 -194.5 -37.5t-185.5 -96.5q-89 -67 -146 -152q-54 -80 -54 -142q0 -38 37 -112q32 -64 32 -94q0 -35 -38 -64q-16 -12 -110 -67q-187 -110 -276 -221q-120 -150 -120 -290
q0 -84 65 -140q61 -54 177 -54q166 0 433 102q159 60 225 97q11 6 18 6q11 0 11 -11q0 -4 -4 -22zM1461 1635l-43 4q-25 3 -41 20l-207 244q-11 13 -11 19q0 8 25 8h73q32 0 48 -24l157 -247q9 -15 9 -18q0 -7 -10 -6z" />
    <glyph glyph-name="Iacute" unicode="&#xcd;" horiz-adv-x="1176" 
d="M1125 478q-177 124 -177 371q0 234 182 497q122 177 213 177q115 0 115 -194q0 -307 -214 -856q74 -16 144 -19q21 -1 21 -18q0 -22 -24 -22q-40 0 -156 22q-106 -216 -204 -311q-178 -172 -435 -172q-196 0 -350 69q-44 20 -44 32q0 5 6 17l22 40q9 16 18 16q5 0 26 -13
q75 -47 176.5 -79t179.5 -32q212 0 371 232q55 80 130 243zM1143 519q71 159 132 349q124 391 124 526q0 88 -50 88q-64 0 -172 -211q-133 -259 -133 -487q0 -162 99 -265zM1615 1903l-207 -244q-14 -17 -27 -21h-43l-17 -3q-7 0 -7 6q0 3 9 18l158 247q16 24 48 24h73
q24 0 24 -8q0 -6 -11 -19z" />
    <glyph glyph-name="Icircumflex" unicode="&#xce;" horiz-adv-x="1176" 
d="M1124 478q-177 124 -177 371q0 234 182 497q122 177 213 177q115 0 115 -194q0 -307 -214 -856q74 -16 144 -19q21 -1 21 -18q0 -22 -24 -22q-40 0 -156 22q-106 -216 -204 -311q-178 -172 -435 -172q-196 0 -350 69q-44 20 -44 32q0 5 6 17l22 40q9 16 18 16q5 0 26 -13
q75 -47 176.5 -79t179.5 -32q212 0 371 232q55 80 130 243zM1142 519q71 159 132 349q124 391 124 526q0 88 -50 88q-64 0 -172 -211q-133 -259 -133 -487q0 -162 99 -265zM1433 1823q-299 -189 -443 -189q-23 0 -23 15q0 18 35 31q205 79 387 247q16 14 37 14h42
q24 -1 37 -34q45 -147 123 -230q20 -16 20 -24q0 -14 -16 -14q-30 0 -91 63q-24 24 -108 121z" />
    <glyph glyph-name="Idieresis" unicode="&#xcf;" horiz-adv-x="1176" 
d="M1125 478q-177 124 -177 371q0 234 182 497q122 177 213 177q115 0 115 -194q0 -307 -214 -856q74 -16 144 -19q21 -1 21 -18q0 -22 -24 -22q-40 0 -156 22q-106 -216 -204 -311q-178 -172 -435 -172q-196 0 -350 69q-44 20 -44 32q0 5 6 17l22 40q9 16 18 16q5 0 26 -13
q75 -47 176.5 -79t179.5 -32q212 0 371 232q55 80 130 243zM1143 519q71 159 132 349q124 391 124 526q0 88 -50 88q-64 0 -172 -211q-133 -259 -133 -487q0 -162 99 -265zM1205 1817q38 0 66 -30q23 -26 23 -61q0 -41 -30 -68q-26 -23 -61 -23q-41 0 -68 30q-23 26 -23 62
q0 39 30 67q26 23 63 23zM1482 1817q38 0 66 -30q23 -26 23 -61q0 -41 -30 -68q-26 -23 -61 -23q-41 0 -68 30q-23 26 -23 62q0 39 30 67q26 23 63 23z" />
    <glyph glyph-name="Igrave" unicode="&#xcc;" horiz-adv-x="1176" 
d="M1124 478q-177 124 -177 371q0 234 182 497q122 177 213 177q115 0 115 -194q0 -307 -214 -856q74 -16 144 -19q21 -1 21 -18q0 -22 -24 -22q-40 0 -156 22q-106 -216 -204 -311q-178 -172 -435 -172q-196 0 -350 69q-44 20 -44 32q0 5 6 17l22 40q9 16 18 16q5 0 26 -13
q75 -47 176.5 -79t179.5 -32q212 0 371 232q55 80 130 243zM1142 519q71 159 132 349q124 391 124 526q0 88 -50 88q-64 0 -172 -211q-133 -259 -133 -487q0 -162 99 -265zM1379 1635l-43 4q-25 3 -41 20l-207 244q-11 13 -11 19q0 8 25 8h73q32 0 48 -24l157 -247
q9 -15 9 -18q0 -7 -10 -6z" />
    <glyph glyph-name="Oacute" unicode="&#xd3;" horiz-adv-x="1403" 
d="M1245 1523q190 0 318 -152q140 -167 140 -420q0 -237 -126 -472q-130 -246 -344 -395q-188 -131 -376 -131q-201 0 -334 146q-144 156 -144 403q0 228 129 470q142 265 355 416q190 135 382 135zM1247 1473q-181 0 -361 -144q-199 -159 -320 -441q-91 -214 -91 -416
q0 -207 107 -347q93 -122 248 -122q170 0 344 125q185 134 309 388q124 253 124 488q0 221 -112 358q-91 111 -248 111zM1551 1903l-207 -244q-14 -17 -27 -21h-43l-17 -3q-7 0 -7 6q0 3 9 18l158 247q16 24 48 24h73q24 0 24 -8q0 -6 -11 -19z" />
    <glyph glyph-name="Ocircumflex" unicode="&#xd4;" horiz-adv-x="1403" 
d="M1245 1523q190 0 318 -152q140 -167 140 -420q0 -237 -126 -472q-130 -246 -344 -395q-188 -131 -376 -131q-201 0 -334 146q-144 156 -144 403q0 228 129 470q142 265 355 416q190 135 382 135zM1247 1473q-181 0 -361 -144q-199 -159 -320 -441q-91 -214 -91 -416
q0 -207 107 -347q93 -122 248 -122q170 0 344 125q185 134 309 388q124 253 124 488q0 221 -112 358q-91 111 -248 111zM1439 1823q-299 -189 -443 -189q-23 0 -23 15q0 18 35 31q205 79 387 247q16 14 37 14h42q24 -1 37 -34q45 -147 123 -230q20 -16 20 -24q0 -14 -16 -14
q-30 0 -91 63q-24 24 -108 121z" />
    <glyph glyph-name="glyph210" horiz-adv-x="512" 
 />
    <glyph glyph-name="Ograve" unicode="&#xd2;" horiz-adv-x="1403" 
d="M1245 1523q190 0 318 -152q140 -167 140 -420q0 -237 -126 -472q-130 -246 -344 -395q-188 -131 -376 -131q-201 0 -334 146q-144 156 -144 403q0 228 129 470q142 265 355 416q190 135 382 135zM1247 1473q-181 0 -361 -144q-199 -159 -320 -441q-91 -214 -91 -416
q0 -207 107 -347q93 -122 248 -122q170 0 344 125q185 134 309 388q124 253 124 488q0 221 -112 358q-91 111 -248 111zM1330 1635l-43 4q-25 3 -41 20l-207 244q-11 13 -11 19q0 8 25 8h73q32 0 48 -24l157 -247q9 -15 9 -18q0 -7 -10 -6z" />
    <glyph glyph-name="Uacute" unicode="&#xda;" horiz-adv-x="1289" 
d="M1454 849q-225 -454 -370 -642q-197 -254 -378 -254q-91 0 -145 59q-49 56 -49 142q0 109 59 322q98 349 243 776q51 149 51 200q0 36 -22 36q-67 0 -279 -445q-10 -23 -21 -23q-6 0 -18 14l-28 31q-13 14 -13 27q0 23 114 204q152 243 271 243q34 0 54 -16
q42 -34 42 -103q0 -122 -198 -695q-159 -461 -159 -600q0 -58 38 -91q35 -31 84 -31q120 0 260.5 158t311.5 484q196 375 333 803q10 28 40 28h55q25 0 25 -22q0 -8 -6 -21q-238 -677 -458 -1574q-6 -31 -20 -31q-8 0 -21 5l-58 25q-16 7 -16 21q0 91 244 862zM1603 1903
l-207 -244q-14 -17 -27 -21h-43l-17 -3q-7 0 -7 6q0 3 9 18l158 247q16 24 48 24h73q24 0 24 -8q0 -6 -11 -19z" />
    <glyph glyph-name="Ucircumflex" unicode="&#xdb;" horiz-adv-x="1289" 
d="M1454 849q-225 -454 -370 -642q-197 -254 -378 -254q-91 0 -145 59q-49 56 -49 142q0 109 59 322q98 349 243 776q51 149 51 200q0 36 -22 36q-67 0 -279 -445q-10 -23 -21 -23q-6 0 -18 14l-28 31q-13 14 -13 27q0 23 114 204q152 243 271 243q34 0 54 -16
q42 -34 42 -103q0 -122 -198 -695q-159 -461 -159 -600q0 -58 38 -91q35 -31 84 -31q120 0 260.5 158t311.5 484q196 375 333 803q10 28 40 28h55q25 0 25 -22q0 -8 -6 -21q-238 -677 -458 -1574q-6 -31 -20 -31q-8 0 -21 5l-58 25q-16 7 -16 21q0 91 244 862zM1491 1823
q-299 -189 -443 -189q-23 0 -23 15q0 18 35 31q205 79 387 247q16 14 37 14h42q24 -1 37 -34q45 -147 123 -230q20 -16 20 -24q0 -14 -16 -14q-30 0 -91 63q-24 24 -108 121z" />
    <glyph glyph-name="Ugrave" unicode="&#xd9;" horiz-adv-x="1289" 
d="M1454 849q-225 -454 -370 -642q-197 -254 -378 -254q-91 0 -145 59q-49 56 -49 142q0 109 59 322q98 349 243 776q51 149 51 200q0 36 -22 36q-67 0 -279 -445q-10 -23 -21 -23q-6 0 -18 14l-28 31q-13 14 -13 27q0 23 114 204q152 243 271 243q34 0 54 -16
q42 -34 42 -103q0 -122 -198 -695q-159 -461 -159 -600q0 -58 38 -91q35 -31 84 -31q120 0 260.5 158t311.5 484q196 375 333 803q10 28 40 28h55q25 0 25 -22q0 -8 -6 -21q-238 -677 -458 -1574q-6 -31 -20 -31q-8 0 -21 5l-58 25q-16 7 -16 21q0 91 244 862zM1409 1635
l-43 4q-25 3 -41 20l-207 244q-11 13 -11 19q0 8 25 8h73q32 0 48 -24l157 -247q9 -15 9 -18q0 -7 -10 -6z" />
    <glyph glyph-name="dotlessi" unicode="&#x131;" horiz-adv-x="379" 
d="M424 466l51 14q20 5 21 5q15 0 15 -17q0 -8 -3 -18l-100 -304q-15 -47 -15 -66q0 -27 21 -27q33 0 118 104q26 32 32 32q18 0 18 -16q0 -25 -103 -118q-77 -70 -125 -70q-69 0 -69 71q0 41 31 143l67 217q12 40 41 50z" />
    <glyph glyph-name="circumflex" unicode="&#x2c6;" 
d="M754 676q-138 -95 -242 -95q-31 0 -31 13q0 8 16 16q109 51 182 127q28 31 47 31h49q16 0 20 -4q3 -3 17 -36q31 -69 84 -133q4 -6 4 -11q0 -10 -11 -10q-22 0 -77 45q-30 25 -58 57z" />
    <glyph glyph-name="tilde" unicode="&#x2dc;" 
d="M671 712q25 0 95 -35q47 -23 76 -23q38 0 57 38q15 30 22 30q13 0 13 -17q0 -28 -33 -69q-43 -54 -106 -54q-36 0 -97 32q-48 26 -74 26q-36 0 -55 -34q-14 -24 -24 -24q-9 0 -9 9q0 21 23 54q45 67 112 67z" />
    <glyph glyph-name="macron" unicode="&#x2c9;" 
d="M636 631h261q13 0 13 -5q0 -1 -2 -8l-6 -18q-4 -13 -23 -14h-255q-15 0 -15 7q0 1 2 8l5 15q3 15 20 15z" />
    <glyph glyph-name="breve" unicode="&#x2d8;" 
d="M607 763h17q11 0 11 -6q0 -4 -5 -12q-25 -43 -25 -70q0 -53 55 -53q68 0 173 120q18 21 39 21h62q17 0 17 -6q0 -22 -80 -89q-104 -86 -199 -86q-41 0 -68 24q-30 27 -30 66q0 91 33 91z" />
    <glyph glyph-name="dotaccent" unicode="&#x2d9;" 
d="M756 718q29 0 49 -23q18 -19 18 -45q0 -30 -23 -50q-19 -18 -45 -18q-28 0 -48 20t-20 49q0 27 20.5 47t48.5 20z" />
    <glyph glyph-name="ring" unicode="&#x2da;" 
d="M764 808q51 0 88 -37q32 -33 32 -76q0 -50 -41 -84q-35 -29 -82 -29q-54 0 -90 37q-32 32 -32 77q0 49 41 83q34 29 84 29zM760 763q-33 0 -56 -22q-20 -20 -20 -46q0 -31 26 -51q22 -17 51 -17q35 0 58 22q20 20 20 46q0 30 -26 51q-22 17 -53 17z" />
    <glyph glyph-name="cedilla" unicode="&#xb8;" 
d="M517 -203q-62 6 -62 47q0 34 30 57q22 17 51 17q60 0 60 -55q0 -72 -90 -141q-62 -49 -91 -49q-13 0 -13 10t27 26q56 36 88 88z" />
    <glyph glyph-name="hungarumlaut" unicode="&#x2dd;" 
d="M592 602l160 150q18 16 47 16h69q21 0 21 -6q0 -5 -7 -10l-209 -150q-15 -11 -36 -14l-45 -6l-6 -1q-6 0 -6 6q0 4 12 15zM807 602l161 150q18 16 46 16h69q22 0 22 -6q0 -5 -8 -10l-208 -150q-16 -11 -37 -14l-44 -6q-13 -2 -13 5q0 4 12 15z" />
    <glyph glyph-name="ogonek" unicode="&#x2db;" 
d="M726 25h54q-90 -89 -90 -158q0 -35 28 -35q42 0 102 65q15 16 23 16q12 0 12 -11q0 -14 -42 -51q-74 -63 -127 -63q-69 0 -69 70q0 88 109 167z" />
    <glyph glyph-name="caron" unicode="&#x2c7;" 
d="M720 678q138 92 252 92q30 0 30 -14q0 -7 -16 -14q-50 -21 -108 -59.5t-85 -68.5t-47 -31h-46q-20 0 -25 15q-32 92 -84 153q-8 10 -8 17q0 9 10 9q39 0 127 -99z" />
    <glyph glyph-name="Lslash" unicode="&#x141;" horiz-adv-x="1403" 
d="M1266 723l152 37q18 4 30 4q27 0 27 -30q0 -25 -37 -34l-195 -47q-110 -331 -213 -447q19 -7 142 -53q57 -21 160 -45.5t141 -26.5q19 -1 19 -12q0 -6 -8 -16l-46 -65q-10 -14 -23 -14q-33 0 -186 50q-108 36 -269 108q-211 -179 -451 -179q-114 0 -202 40
q-87 41 -87 131q0 89 92 142q87 51 220 51q165 0 423 -83q54 88 84 176q27 77 65 209l-109 -26q-11 -3 -21 -3q-31 0 -31 29q0 27 41 36l141 34q82 272 160 436q99 211 230 319q95 79 174 79q66 0 101 -57q28 -47 28 -122q0 -122 -75 -345q-23 -67 -51 -73l-52 -13
q-9 -2 -14 -2q-9 -1 -9 10q0 13 32 87q106 242 106 368q0 45 -21 73q-17 24 -41 24q-50 0 -116 -65t-121 -168q-54 -102 -173 -465zM888 155q-223 69 -377 69q-97 0 -165 -31q-67 -30 -67 -82q0 -50 60 -79q62 -29 159 -29q209 0 390 152z" />
    <glyph glyph-name="lslash" unicode="&#x142;" horiz-adv-x="493" 
d="M526 515l-11 -39l120 52q20 8 27 8q19 0 19 -20q0 -18 -36 -33l-146 -58l-67 -221q-21 -71 -21 -119q0 -32 28 -32q40 0 129 82q37 35 43 35q11 0 11 -12q0 -23 -89 -101q-83 -72 -144 -72q-84 0 -84 93q0 50 20 128l42 164l-90 -37q-17 -7 -30 -7q-21 0 -21 20
q0 18 33 31l123 48l10 35q146 510 266 769q149 320 232 320q27 0 45.5 -30t18.5 -73q0 -242 -173 -544q-85 -149 -255 -387zM551 600q138 195 240 418q122 265 122 420q0 43 -22 43q-44 0 -159 -300q-60 -156 -181 -581z" />
    <glyph glyph-name="Scaron" unicode="&#x160;" horiz-adv-x="1365" 
d="M236 106l28 39q10 14 21 14q6 0 16 -5q288 -151 630 -151q189 0 330 91q127 82 127 209q0 87 -59 166q-37 48 -154 138q-188 145 -261 220q-116 121 -116 242q0 164 188 292q103 71 262 117q156 45 294 45q294 0 294 -163q0 -135 -181 -279q-103 -81 -133 -81
q-8 0 -31 11l-64 30q-14 7 -14 15q0 11 78 48q113 55 199 127q87 73 87 137q0 43 -57 73q-61 32 -169 32q-258 0 -471 -136q-186 -119 -186 -241q0 -87 97 -188q50 -51 177 -142q184 -131 247 -219q69 -96 69 -197q0 -84 -48.5 -164.5t-129.5 -129.5q-171 -103 -467 -103
q-216 0 -423 50q-135 33 -181 65q-10 8 -10 13q0 9 11 25zM1519 1755q302 192 443 192q23 0 23 -17q0 -18 -34 -31q-208 -81 -388 -250q-16 -14 -37 -14h-42q-26 1 -36 35q-19 63 -58 133.5t-76 108.5q-10 11 -10 18q0 12 16 12q40 0 199 -187z" />
    <glyph glyph-name="scaron" unicode="&#x161;" horiz-adv-x="455" 
d="M479 395l-164 -169q-10 -10 -16 -10q-14 -1 -14 18q0 8 12 21l8 9l147 158q24 26 48 92q23 62 79 62q40 0 40 -41q0 -20 -22 -42l-55 -55q77 -142 77 -234q0 -88 -59 -149q-67 -70 -180 -70q-54 0 -96 22q-51 26 -51 63q0 40 48 40q41 0 79 -38q44 -45 74 -45q34 0 58 41
q22 38 22 98q0 109 -35 229zM572 719q138 92 252 92q30 0 30 -14q0 -7 -16 -14q-50 -21 -108 -59.5t-85 -68.5t-47 -31h-46q-20 0 -25 15q-32 92 -84 153q-8 10 -8 17q0 9 10 9q39 0 127 -99z" />
    <glyph glyph-name="Zcaron" unicode="&#x17d;" horiz-adv-x="1403" 
d="M347 97l82 4q427 17 598 17q249 0 404 -9q54 -4 54 -16q0 -8 -7 -19l-48 -76q-11 -19 -34 -19q-6 0 -17 2q-138 21 -433 21q-444 0 -602 -16q-69 -7 -101 -7q-42 0 -42 32q0 58 196 246q183 175 686 539q436 315 700 569q-221 65 -638 65q-241 0 -388 -43
q-58 -17 -95 -48.5t-37 -64.5q0 -73 167 -124q108 -33 215 -39q35 -2 35 -13q0 -8 -9 -21l-36 -52q-14 -20 -32 -20q-27 0 -102 23.5t-131 49.5q-166 77 -166 175q0 57 50 116t123 89q156 65 442 65q340 0 594 -56q113 -25 113 -66q0 -49 -251 -274q-181 -163 -621 -482
q-242 -177 -349 -261q-172 -137 -320 -287zM1346 1755q302 192 443 192q23 0 23 -17q0 -18 -34 -31q-208 -81 -388 -250q-16 -14 -37 -14h-42q-26 1 -36 35q-19 63 -58 133.5t-76 108.5q-10 11 -10 18q0 12 16 12q40 0 199 -187z" />
    <glyph glyph-name="zcaron" unicode="&#x17e;" horiz-adv-x="455" 
d="M325 90h58q62 0 105 3q57 4 84 4q20 0 20 -14q0 -6 -7 -22l-15 -33q-8 -18 -26 -21q-43 -7 -132 -7q-206 0 -206 28q0 15 36 50l318 304q-70 -2 -213 -9h-7q-17 0 -17 13q0 6 7 20l18 35q11 21 32 25q18 4 181 4q122 0 122 -26q0 -19 -42 -58zM530 678q138 92 252 92
q30 0 30 -14q0 -7 -16 -14q-50 -21 -108 -59.5t-85 -68.5t-47 -31h-46q-20 0 -25 15q-32 92 -84 153q-8 10 -8 17q0 9 10 9q39 0 127 -99z" />
    <glyph glyph-name="brokenbar" unicode="&#xa6;" horiz-adv-x="1024" 
d="M460 1483h105v-918h-105v918zM460 460h105v-920h-105v920z" />
    <glyph glyph-name="Eth" unicode="&#xd0;" horiz-adv-x="1820" 
d="M1160 538h-212q-34 0 -34 21q0 3 1 5l10 34q7 18 43 18h223q92 246 192 542l30 87q-327 237 -630 237q-90 0 -147 -36q-62 -39 -62 -93q0 -85 188 -301q7 -8 7 -15q0 -11 -19 -19l-39 -15q-10 -4 -17 -4q-21 0 -67 67q-65 95 -80 129q-32 70 -32 130q0 113 116 169
q79 38 209 38q219 0 404 -73q88 -34 206 -109l23 71q18 56 50 70l67 28q10 4 16 4q10 0 10 -9q0 -3 -4 -13l-76 -217q162 -137 258 -254q180 -218 180 -471q0 -285 -233 -448q-159 -111 -410 -111q-159 0 -431 91q-200 -91 -347 -91q-133 0 -206 43q-44 26 -44 58
q0 51 99 93q110 46 227 46q105 0 305 -51q143 140 226 349zM399 96q75 -46 166 -46q124 0 245 57q-118 40 -226 40q-107 0 -185 -51zM1006 166q225 -73 404 -73q242 0 371 129q97 99 97 261q0 222 -180 475q-96 134 -199 221l-14 -41q-103 -308 -179 -522h114q27 0 27 -16
q0 -6 -2 -11l-9 -29q-8 -22 -41 -22h-120q-84 -201 -269 -372z" />
    <glyph glyph-name="eth" unicode="&#xf0;" horiz-adv-x="683" 
d="M833 1065l137 77q17 10 30 10q19 0 19 -20q0 -16 -17 -25l-156 -89q53 -169 53 -330q0 -288 -141 -514q-118 -189 -295 -189q-69 0 -113 41q-45 43 -45 107q0 118 107 232q111 120 228 120q76 0 114 -62q40 148 40 306q0 132 -21 248l-134 -73q-20 -11 -31 -11
q-22 0 -22 18q0 16 22 29l157 87q-30 153 -63 258q-22 72 -22 88q0 27 21 27t33 -28q44 -107 99 -307zM624 443q-57 0 -120 -90q-95 -138 -95 -254q0 -72 54 -72q92 0 158 122q74 136 74 227q0 67 -71 67z" />
    <glyph glyph-name="Yacute" unicode="&#xdd;" horiz-adv-x="1252" 
d="M1554 1101q-286 -526 -488 -796q-155 -207 -297 -299q-82 -53 -145 -53q-120 0 -120 146q0 149 96 470q39 129 175 543q98 299 98 337q0 24 -19 24q-34 0 -144 -154q-67 -95 -163 -297q-5 -11 -12 -11t-15 12l-30 50q-6 11 -6 16q0 11 50.5 95.5t89.5 140.5
q141 198 223 198q85 0 85 -129q0 -90 -32 -209q-9 -36 -82 -276q-218 -714 -218 -839q0 -67 49 -67q102 0 313 260q163 201 398 598q116 195 166 295q30 59 88 206q32 79 39 83q4 4 21 7l48 9q7 1 10 1q21 0 21 -16q0 -24 -100 -353.5t-207 -658.5q-124 -383 -226 -545
q-112 -176 -266 -260q-146 -79 -371 -79q-142 0 -142 23q0 3 5 16l19 45q7 15 15 15q5 0 14 -4q88 -45 229 -45q187 0 321 169q125 156 307 696q49 145 203 636zM1584 1903l-207 -244q-14 -17 -27 -21h-43l-17 -3q-7 0 -7 6q0 3 9 18l158 247q16 24 48 24h73q24 0 24 -8
q0 -6 -11 -19z" />
    <glyph glyph-name="yacute" unicode="&#xfd;" horiz-adv-x="607" 
d="M549 -27l98 334q-108 -173 -142 -216q-82 -104 -150 -104q-40 0 -63 36q-18 30 -18 72q0 45 23 128l48 168q18 64 45 75l49 16q9 3 15 3q15 0 15 -18q0 -8 -8 -31l-101 -318q-10 -32 -10 -56q0 -33 31 -33q40 0 115 105q90 128 170 282q26 49 37 55q4 1 25 5l24 5
q19 4 21 4q14 0 14 -13q0 -3 -8 -34l-105 -370l65 60q13 12 19 12q18 0 18 -20q0 -5 -14 -18l-96 -87l-77 -220q-107 -305 -247 -305q-74 0 -74 75q0 72 80 183q54 75 201 225zM517 -111q-19 -21 -86 -95q-123 -135 -123 -225q0 -37 30 -37q38 0 64 41q24 38 56 135z
M570 602l161 150q18 16 46 16h69q22 0 22 -6q0 -5 -8 -10l-209 -150q-15 -11 -36 -14l-44 -6l-6 -1q-6 0 -6 6q0 5 11 15z" />
    <glyph glyph-name="Thorn" unicode="&#xde;" horiz-adv-x="1100" 
d="M527 593q141 293 247 424q106 132 228 203q93 55 177 55q114 0 192 -89q62 -71 62 -194q0 -234 -198 -459q-149 -169 -334 -260q-115 -57 -296 -110q-72 -22 -93 -22q-16 0 -16 11t8 29l23 51q7 15 20 15q293 0 497 193q148 141 220 319q48 120 48 237q0 98 -39 157
q-47 72 -119 72q-143 0 -328 -218q-183 -215 -309 -536q-79 -203 -213 -605q-39 -117 -53 -117q-7 0 -19 11l-54 46q-17 14 -17 24q0 5 5 16q2 3 15 43q8 25 42 116q177 497 248 816q35 145 73.5 341t49.5 286q5 28 22 38l52 28q17 9 29 9q16 0 16 -20q0 -47 -48 -293
q-71 -368 -138 -617z" />
    <glyph glyph-name="thorn" unicode="&#xfe;" horiz-adv-x="645" 
d="M413 192q62 147 109 207q67 86 149 86q58 0 98 -37q53 -48 53 -122q0 -145 -100 -255q-77 -86 -191 -86q-44 0 -87 16q-36 13 -36 36q0 13 16 28q67 -38 91 -38q68 0 127 99q75 127 75 244q0 73 -65 73q-75 0 -159 -147.5t-185 -460.5l-95 -293q-9 -31 -33 -38l-55 -13
q-4 -1 -8 -1q-14 0 -14 13q0 7 3 16l517 1772q13 44 21 56q7 11 39 24l66 26q8 3 13 3q14 0 14 -15q0 -7 -8 -34z" />
    <glyph glyph-name="minus" unicode="&#x2212;" horiz-adv-x="1062" 
d="M492 313h504q28 0 29 -16v-24q-1 -23 -29 -22h-504q-30 0 -30 21v23q0 17 30 18z" />
    <glyph glyph-name="multiply" unicode="&#xd7;" horiz-adv-x="1062" 
d="M789 238l-227 -224q-14 -14 -25 -14q-30 0 -30 32q0 15 16 31l221 220l-226 225q-11 11 -11 26q0 32 29 32q12 0 26 -14l227 -224l227 224q14 14 27 14q29 0 29 -32q0 -14 -17 -31l-221 -220l226 -225q12 -12 12 -26q0 -32 -30 -32q-12 0 -26 14z" />
    <glyph glyph-name="onesuperior" unicode="&#xb9;" horiz-adv-x="493" 
d="M627 835l-72 -51q-8 -5 -13 -5t-10 5l-8 7q-6 6 -6 11t7 11l146 122q11 9 18 9q3 0 7 -1l19 -3q11 -2 11 -13q0 -5 -3 -13l-139 -446q-7 -20 -35 -29h-38l-15 -3q-9 0 -9 10q0 2 5 16z" />
    <glyph glyph-name="twosuperior" unicode="&#xb2;" horiz-adv-x="493" 
d="M541 525h164q33 0 33 -12q0 -7 -6 -20l-11 -23q-10 -21 -36 -21h-258q-39 0 -39 13q0 9 17 20q104 69 190 161q93 100 93 183q0 35 -26 58q-20 18 -51 18q-68 0 -119 -120q-8 -18 -18 -18q-5 0 -15 4l-21 9q-15 6 -15 16q0 25 50 84q56 68 147 68q58 0 102 -33
q55 -40 55 -107q0 -96 -122 -198q-35 -29 -114 -82z" />
    <glyph glyph-name="threesuperior" unicode="&#xb3;" horiz-adv-x="493" 
d="M655 714q92 -53 92 -118q0 -74 -70 -121q-58 -39 -148 -39q-80 0 -152 34q-24 12 -24 23q0 3 2 9l18 41q7 16 14 16q4 0 28 -27q48 -53 113 -53q47 0 84 31q46 39 46 98q0 31 -16 52q-21 28 -56 28q-7 0 -19 -1q-7 -1 -13 -1q-19 0 -19 17q0 22 63 43q105 35 105 104
q0 51 -53 51q-64 0 -128 -72q-26 -29 -35 -29q-5 0 -13 5l-20 14q-10 7 -10 14q0 13 44 47q82 64 160 64q56 0 97 -28q47 -32 47 -77q0 -79 -137 -125z" />
    <glyph glyph-name="onehalf" unicode="&#xbd;" horiz-adv-x="1062" 
d="M534 835l-72 -51q-8 -5 -13 -5t-10 5l-8 7q-6 6 -6 11t7 11l146 122q11 9 18 9q3 0 7 -1l19 -3q11 -2 11 -13q0 -5 -3 -13l-139 -446q-7 -20 -35 -29h-38l-15 -3q-9 0 -9 10q0 2 5 16zM477 21l538 942q14 25 33 25q26 0 26 -28q0 -14 -13 -37l-528 -934q-13 -22 -36 -22
q-28 0 -28 27q0 14 8 27zM1013 81h164q33 0 33 -12q0 -7 -6 -20l-11 -22q-11 -22 -36 -22h-258q-39 0 -39 14q0 8 17 20q103 67 190 160q93 99 93 183q0 34 -26 57q-21 18 -51 18q-47 0 -77 -39q-18 -23 -42 -81q-8 -18 -18 -18q-4 0 -16 5l-20 9q-16 6 -16 15q0 25 50 84
q57 68 147 68q60 0 104 -33q54 -40 54 -106q0 -97 -122 -198q-40 -33 -114 -82z" />
    <glyph glyph-name="onequarter" unicode="&#xbc;" horiz-adv-x="1062" 
d="M534 835l-72 -51q-8 -5 -13 -5t-10 5l-8 7q-6 6 -6 11t7 11l146 122q11 9 18 9q3 0 7 -1l19 -3q11 -2 11 -13q0 -5 -3 -13l-139 -446q-7 -20 -35 -29h-38l-15 -3q-9 0 -9 10q0 2 5 16zM471 21l539 942q14 25 33 25q26 0 26 -28q0 -14 -13 -37l-528 -934q-13 -22 -36 -22
q-28 0 -28 27q0 14 7 27zM887 174h163l70 225q9 32 38 46l37 18q14 7 18 7q8 0 8 -9q0 -6 -3 -16l-82 -271h63q16 0 16 -13q0 -4 -2 -9l-14 -37q-7 -18 -27 -17h-61l-20 -64q-9 -28 -35 -39l-45 -17q-11 -5 -19 -5q-7 0 -7 7q0 1 5 15l37 103h-168q-49 0 -49 18q0 9 12 28
l209 338q17 25 40 34l24 9q5 2 9 2q10 0 10 -10q0 -7 -7 -17z" />
    <glyph glyph-name="threequarters" unicode="&#xbe;" horiz-adv-x="1062" 
d="M610 714q92 -53 92 -118q0 -74 -70 -121q-58 -39 -148 -39q-80 0 -152 34q-24 12 -24 23q0 3 2 9l18 41q7 16 14 16q4 0 28 -27q48 -53 113 -53q47 0 84 31q46 39 46 98q0 31 -16 52q-21 28 -56 28q-7 0 -19 -1q-7 -1 -13 -1q-19 0 -19 17q0 22 63 43q105 35 105 104
q0 51 -53 51q-64 0 -128 -72q-26 -29 -35 -29q-5 0 -13 5l-20 14q-10 7 -10 14q0 13 44 47q82 64 160 64q56 0 97 -28q47 -32 47 -77q0 -79 -137 -125zM520 21l538 942q14 25 33 25q26 0 26 -28q0 -14 -13 -37l-528 -934q-13 -22 -36 -22q-28 0 -28 27q0 14 8 27zM935 174
h163l70 225q9 32 38 46l37 18q14 7 18 7q8 0 8 -9q0 -6 -3 -16l-82 -271h64q15 0 15 -13q0 -4 -2 -9l-14 -37q-7 -18 -27 -17h-61l-20 -64q-8 -28 -35 -39l-45 -17q-11 -5 -19 -5q-7 0 -7 6q0 2 5 16l37 103h-168q-49 0 -49 18q0 9 12 28l209 338q17 25 40 34l24 9q6 2 9 2
q10 0 10 -10q0 -7 -7 -17z" />
    <glyph glyph-name="glyph247" horiz-adv-x="512" 
 />
    <glyph glyph-name="Gbreve" unicode="&#x11e;" horiz-adv-x="1176" 
d="M1599 1833h60q17 0 17 -7q0 -26 -100 -107q-103 -84 -206 -84q-105 0 -105 104q0 94 34 94h21q17 0 17 -8q0 -2 -2 -6q-25 -51 -25 -80q0 -57 59 -57q80 0 175 123q23 28 55 28zM1068 35q-164 -82 -296 -82q-200 0 -331 123q-113 107 -113 282q0 163 67.5 337t188.5 323
q236 292 519 422q180 83 335 83q90 0 137 -42q47 -41 47 -107q0 -152 -219 -353q-132 -121 -170 -121q-8 0 -20 9l-45 31q-19 13 -19 23t26 24q102 58 235 179q153 138 153 221q0 38 -36 63q-35 23 -91 23q-169 0 -369 -125q-305 -191 -485 -501q-158 -273 -158 -498
q0 -160 113 -260q98 -86 238 -86q164 0 310 125l37 138q53 193 175 193q38 0 38 -25q0 -9 -23 -38q-48 -60 -123 -336q-56 -207 -91 -282q-77 -164 -240 -247q-110 -57 -266 -57q-144 0 -227 27q-13 4 -16 25l-6 56q-1 6 -1 12q0 12 8 12q5 0 52 -21q136 -61 248 -61
q217 0 329 242q35 74 89 269z" />
    <glyph glyph-name="gbreve" unicode="&#x11f;" horiz-adv-x="645" 
d="M560 763h17q11 0 11 -6q0 -4 -5 -12q-25 -43 -25 -70q0 -53 55 -53q68 0 173 120q18 21 39 21h62q17 0 17 -6q0 -22 -80 -89q-104 -86 -199 -86q-41 0 -68 24q-30 27 -30 66q0 91 33 91zM560 -11l79 229q-107 -130 -143 -165q-70 -68 -121 -68q-49 0 -83 39
q-32 38 -32 92q0 68 41 144t108 132q112 93 262 93q119 0 119 -39q0 -7 -4 -14l-8 -18q-58 29 -102 29q-120 0 -219 -123q-92 -115 -92 -214q0 -53 41 -53q61 0 149 107q78 95 119 175q18 38 39 38q7 0 17 -2l24 -4q23 -4 23 -17q0 -5 -3 -14l-80 -258l64 50q16 12 19 12
q17 0 17 -19q0 -8 -13 -19l-99 -83q-11 -28 -56 -151q-71 -193 -156 -285q-85 -93 -170 -93q-34 0 -58 24q-26 26 -26 66q0 155 344 409zM541 -69q-284 -218 -284 -348q0 -51 38 -51q91 0 246 399z" />
    <glyph glyph-name="Idot" unicode="&#x130;" horiz-adv-x="1176" 
d="M1354 1817q39 0 66 -30q23 -26 23 -61q0 -41 -30 -68q-26 -23 -61 -23q-41 0 -68 30q-23 26 -23 62q0 39 30 67q26 23 63 23zM1124 478q-177 124 -177 371q0 234 182 497q122 177 213 177q115 0 115 -194q0 -307 -214 -856q74 -16 144 -19q21 -1 21 -18q0 -22 -24 -22
q-40 0 -156 22q-106 -216 -204 -311q-178 -172 -435 -172q-196 0 -350 69q-44 20 -44 32q0 5 6 17l22 40q9 16 18 16q5 0 26 -13q75 -47 176.5 -79t179.5 -32q212 0 371 232q55 80 130 243zM1142 519q71 159 132 349q124 391 124 526q0 88 -50 88q-64 0 -172 -211
q-133 -259 -133 -487q0 -162 99 -265z" />
    <glyph glyph-name="Scedilla" unicode="&#x15e;" horiz-adv-x="1365" 
d="M829 -225q-66 5 -66 52q0 32 28 54q22 17 50 17q64 0 64 -61q0 -54 -63 -121q-67 -71 -105 -71q-16 0 -16 12q0 6 11 14q65 48 97 104zM236 106l28 39q10 14 21 14q6 0 16 -5q288 -151 630 -151q189 0 330 91q127 82 127 209q0 87 -59 166q-37 48 -154 138
q-188 145 -261 220q-116 121 -116 242q0 164 188 292q103 71 262 117q156 45 294 45q294 0 294 -163q0 -135 -181 -279q-103 -81 -133 -81q-8 0 -31 11l-64 30q-14 7 -14 15q0 11 78 48q113 55 199 127q87 73 87 137q0 43 -57 73q-61 32 -169 32q-258 0 -471 -136
q-186 -119 -186 -241q0 -87 97 -188q50 -51 177 -142q184 -131 247 -219q69 -96 69 -197q0 -84 -48.5 -164.5t-129.5 -129.5q-171 -103 -467 -103q-216 0 -423 50q-135 33 -181 65q-10 8 -10 13q0 9 11 25z" />
    <glyph glyph-name="scedilla" unicode="&#x15f;" horiz-adv-x="455" 
d="M397 -203q-62 6 -62 47q0 34 30 57q22 17 51 17q60 0 60 -55q0 -72 -90 -141q-62 -49 -91 -49q-13 0 -13 10t27 26q56 36 88 88zM479 395l-164 -169q-10 -10 -16 -10q-14 -1 -14 18q0 8 12 21l8 9l147 158q24 26 48 92q23 62 79 62q40 0 40 -41q0 -20 -22 -42l-55 -55
q77 -142 77 -234q0 -88 -59 -149q-67 -70 -180 -70q-54 0 -96 22q-51 26 -51 63q0 40 48 40q41 0 79 -38q44 -45 74 -45q34 0 58 41q22 38 22 98q0 109 -35 229z" />
    <glyph glyph-name="Cacute" unicode="&#x106;" horiz-adv-x="1138" 
d="M1664 1903l-207 -244q-14 -17 -27 -21h-43l-17 -3q-7 0 -7 6q0 3 9 18l158 247q16 24 48 24h73q24 0 24 -8q0 -6 -11 -19zM1072 1002l18 60q8 23 36 34q169 65 271 141q126 94 126 158q0 35 -36 56.5t-94 21.5q-145 0 -350 -124q-166 -101 -337 -316q-277 -348 -277 -659
q0 -169 103 -273q98 -98 252 -98q129 0 279 62q94 40 144 72q43 27 51 27q21 0 21 -30q0 -8 -97 -63q-206 -118 -436 -118q-208 0 -316 122q-97 108 -97 303q0 293 215 592q224 313 517 459q189 94 348 94q69 0 113 -33q56 -41 56 -108q0 -157 -256 -313q-88 -55 -180 -87
q-42 -14 -59 -14q-19 0 -19 12q0 8 4 22z" />
    <glyph glyph-name="cacute" unicode="&#x107;" horiz-adv-x="531" 
d="M573 602l161 150q18 16 46 16h69q22 0 22 -6q0 -5 -8 -10l-209 -150q-15 -11 -36 -14l-44 -6l-6 -1q-6 0 -6 6q0 5 11 15zM722 423l-11 -39q-6 -21 -14 -21q-5 0 -39 36q-39 44 -82 44q-80 0 -152 -126q-60 -105 -60 -190q0 -74 62 -74q79 0 207 91q9 6 14 6q15 0 15 -15
q0 -19 -85 -78q-104 -72 -191 -72q-53 0 -86 32q-41 40 -41 101q0 137 115 257q105 110 235 110q116 0 116 -44q0 -8 -3 -18z" />
    <glyph glyph-name="Ccaron" unicode="&#x10c;" horiz-adv-x="1138" 
d="M1404 1755q302 192 443 192q23 0 23 -17q0 -18 -34 -31q-208 -81 -388 -250q-16 -14 -37 -14h-42q-26 1 -36 35q-19 63 -58 133.5t-76 108.5q-10 11 -10 18q0 12 16 12q40 0 199 -187zM1072 1002l18 60q8 23 36 34q169 65 271 141q126 94 126 158q0 35 -36 56.5t-94 21.5
q-145 0 -350 -124q-166 -101 -337 -316q-277 -348 -277 -659q0 -169 103 -273q98 -98 252 -98q129 0 279 62q94 40 144 72q43 27 51 27q21 0 21 -30q0 -8 -97 -63q-206 -118 -436 -118q-208 0 -316 122q-97 108 -97 303q0 293 215 592q224 313 517 459q189 94 348 94
q69 0 113 -33q56 -41 56 -108q0 -157 -256 -313q-88 -55 -180 -87q-42 -14 -59 -14q-19 0 -19 12q0 8 4 22z" />
    <glyph glyph-name="ccaron" unicode="&#x10d;" horiz-adv-x="531" 
d="M623 678q138 92 252 92q30 0 30 -14q0 -7 -16 -14q-50 -21 -108 -59.5t-85 -68.5t-47 -31h-46q-20 0 -25 15q-32 92 -84 153q-8 10 -8 17q0 9 10 9q39 0 127 -99zM722 423l-11 -39q-6 -21 -14 -21q-5 0 -39 36q-39 44 -82 44q-80 0 -152 -126q-60 -105 -60 -190
q0 -74 62 -74q79 0 207 91q9 6 14 6q15 0 15 -15q0 -19 -85 -78q-104 -72 -191 -72q-53 0 -86 32q-41 40 -41 101q0 137 115 257q105 110 235 110q116 0 116 -44q0 -8 -3 -18z" />
    <glyph glyph-name="dmacron" unicode="&#x111;" horiz-adv-x="683" 
d="M860 993h-143q-23 0 -23 7q0 1 3 9l7 18q6 15 30 16h141l59 200q23 77 32 92q9 14 26 23l75 37q12 6 18 6q18 0 18 -19q0 -8 -5 -20q-12 -31 -16 -45l-87 -274h123q18 -1 18 -6q0 -3 -2 -8l-9 -20q-6 -15 -35 -16h-111l-250 -790q-29 -91 -29 -118q0 -32 24 -32
q37 0 130 93q20 19 24 19q14 0 14 -14q0 -26 -87 -104q-70 -62 -119 -62q-76 0 -76 92q0 21 8 87q-59 -77 -94 -114q-61 -65 -136 -65q-59 0 -92 35q-39 42 -39 105q0 131 127 257q105 103 244 103q38 0 80 -12zM695 432q-43 11 -70 11q-106 0 -186 -109q-77 -106 -77 -203
q0 -35 17 -58q20 -27 47 -27q59 0 142 111q75 98 127 275z" />
    <glyph glyph-name="nbspace" unicode="&#xa0;" horiz-adv-x="512" 
 />
    <glyph glyph-name="sfthyphen" unicode="&#xad;" horiz-adv-x="417" 
d="M246 226l9 36q6 18 30 18h288q27 0 26 -13q0 -1 -1 -5l-9 -36q-7 -23 -31 -23h-285q-27 0 -27 19v4z" />
    <glyph glyph-name="overscore" unicode="&#xaf;" horiz-adv-x="1024" 
d="M0 1641h1024v-105h-1024v105z" />
    <glyph glyph-name="middot" unicode="&#xb7;" horiz-adv-x="417" 
d="M488 528q35 0 61 -27q21 -23 21 -56q0 -37 -27 -62q-24 -21 -56 -21q-38 0 -62 27q-21 24 -21 57q0 36 27 61q24 21 57 21z" />
    <glyph glyph-name="glyph262" 
d="M1212 1755q302 192 443 192q23 0 23 -17q0 -18 -34 -31q-208 -81 -388 -250q-16 -14 -37 -14h-42q-26 1 -36 35q-19 63 -58 133.5t-76 108.5q-10 11 -10 18q0 12 16 12q40 0 199 -187z" />
    <glyph glyph-name="glyph263" 
d="M1319 1833h60q17 0 17 -7q0 -26 -100 -107q-103 -84 -206 -84q-105 0 -105 104q0 94 34 94h21q17 0 17 -8q0 -2 -2 -6q-25 -51 -25 -80q0 -57 59 -57q80 0 175 123q23 28 55 28z" />
    <glyph glyph-name="glyph264" 
d="M1034 1817q38 0 66 -30q23 -26 23 -61q0 -41 -30 -68q-26 -23 -61 -23q-41 0 -68 30q-23 26 -23 62q0 39 30 67q26 23 63 23zM1311 1817q38 0 66 -30q23 -26 23 -61q0 -41 -30 -68q-26 -23 -61 -23q-41 0 -68 30q-23 26 -23 62q0 39 30 67q26 23 63 23z" />
    <glyph glyph-name="glyph265" 
d="M1143 1817q39 0 66 -30q23 -26 23 -61q0 -41 -30 -68q-26 -23 -61 -23q-41 0 -68 30q-23 26 -23 62q0 39 30 67q26 23 63 23z" />
    <glyph glyph-name="glyph266" 
d="M1182 1635l-43 4q-25 3 -41 20l-207 244q-11 13 -11 19q0 8 25 8h73q32 0 48 -24l157 -247q9 -15 9 -18q0 -7 -10 -6z" />
    <glyph glyph-name="glyph267" 
d="M1403 1903l-207 -244q-14 -17 -27 -21h-43l-17 -3q-7 0 -7 6q0 3 9 18l158 247q16 24 48 24h73q24 0 24 -8q0 -6 -11 -19z" />
    <glyph glyph-name="glyph268" 
d="M993 1817q38 0 66 -30q23 -26 23 -61q0 -41 -30 -68q-26 -23 -61 -23q-41 0 -68 30q-23 26 -23 62q0 39 30 67q26 23 63 23zM1337 1817q39 0 67 -30q23 -26 23 -61q0 -41 -30 -68q-26 -23 -61 -23q-41 0 -68 30q-23 26 -23 62q0 39 30 67q26 23 62 23z" />
    <glyph glyph-name="glyph269" 
d="M937 1832q68 0 169 -55q98 -53 145 -53q83 0 126 82q18 34 32 34q12 0 12 -12q0 -44 -59 -112q-69 -81 -143 -81q-54 0 -246 85q-52 23 -103 23q-70 0 -109 -76q-20 -39 -33 -39t-12 12q0 6 51 101q21 39 69.5 65t100.5 26z" />
    <glyph glyph-name="glyph270" 
d="M631 -225q-66 5 -66 52q0 32 28 54q22 17 50 17q64 0 64 -61q0 -54 -63 -121q-67 -71 -105 -71q-16 0 -16 12q0 6 11 14q65 48 97 104z" />
    <glyph glyph-name="glyph271" 
d="M1263 1823q-299 -189 -443 -189q-23 0 -23 15q0 18 35 31q205 79 387 247q16 14 37 14h42q24 -1 37 -34q45 -147 123 -230q20 -16 20 -24q0 -14 -16 -14q-30 0 -91 63q-24 24 -108 121z" />
    <glyph glyph-name="glyph272" 
d="M1172 1890q69 0 114 -48q32 -35 32 -80q0 -52 -43 -89q-43 -38 -105 -38q-71 0 -116 48q-32 35 -32 80q0 51 42 89q43 38 108 38zM1168 1843q-45 0 -76 -29q-23 -23 -23 -51q0 -34 31 -58q29 -23 70 -23q48 0 78 29q23 23 23 52q0 33 -30 57q-29 23 -73 23z" />
    <glyph glyph-name="glyph273" horiz-adv-x="512" 
 />
    </font>
</defs>
</svg>
